<svg xmlns="http://www.w3.org/2000/svg" xmlns:xlink="http://www.w3.org/1999/xlink" viewBox="0 0 953.28 779.86"><defs><style>.cls-1{isolation:isolate;}.cls-12,.cls-2{fill:#284de2;}.cls-10,.cls-3{fill:#fff;}.cls-4{fill:#222c3b;}.cls-5{fill:#39271f;}.cls-10,.cls-11,.cls-12,.cls-13,.cls-14,.cls-18,.cls-19,.cls-20,.cls-21,.cls-22,.cls-23,.cls-5,.cls-6,.cls-7,.cls-8,.cls-9{fill-rule:evenodd;}.cls-6{fill:#e3ad7c;}.cls-7{fill:#d67f54;}.cls-8{fill:#d98f77;}.cls-9{fill:#3f2717;}.cls-11{fill:#462917;}.cls-13{fill:#623a1b;}.cls-14{fill:#774d30;}.cls-15{fill:#2e3b4f;}.cls-16{fill:#e5332a;}.cls-17,.cls-20{fill:#141e2e;}.cls-18{fill:#382f2c;}.cls-19{fill:#1f201e;}.cls-21{fill:#333;}.cls-22{fill:#473b37;}.cls-23{fill:#352f2d;}.cls-24{fill:#273547;}.cls-25{fill:#8faebe;mix-blend-mode:multiply;}.cls-26{fill:#2dab66;}</style><image id="image" width="96" height="96" xlink:href="../../icons8-microfone-96.png"/><image id="image-2" width="96" height="96" xlink:href="../../icons8-chamada-de-v%C3%ADdeo-96.png"/><image id="image-3" width="100" height="100" xlink:href="../../icons8-sem-telefones-100%20(1).png"/></defs><g class="cls-1"><g id="Camada_2" data-name="Camada 2"><g id="Camada_1-2" data-name="Camada 1"><rect class="cls-2" x="635.43" y="320.87" width="181.91" height="45.16" rx="4.36"/><rect class="cls-3" x="652.18" y="330.44" width="2.56" height="26.02" rx="0.48"/><rect class="cls-4" width="603.28" height="366.04" rx="2.55"/><circle class="cls-3" cx="586.27" cy="16.61" r="7.14"/><circle class="cls-3" cx="568.35" cy="16.61" r="7.14"/><circle class="cls-3" cx="550.43" cy="16.61" r="7.14"/><path class="cls-5" d="M310.78,272.21c10.42,33.35,30.69,52.11,66.34,61.09-9.12-13.35-5.91-33.17,9.49-41.67s32.31-16.84,32.27-33.95c-.06-26.69-20.33-23.65-8.61-40.93s12.57-46.55-8.66-60.66l-.87-.6c-4-3.83-6.84-4.81-2.3-12.46,29.9-50.43-60.68-99.7-87-58.9-5.77-8.12-16.22-16.65-34.26-14.59-11.22,1.27-39.9,13-52.65,33.91-21.18,34.81,10.36,34.2-4.9,52.26a24.33,24.33,0,0,0-4.42,4.42l-.56.45c-20,15.71-15.08,38.88-3.36,56.17s-11,17.54-11.42,40c-.41,23.1,23.73,27.56,39.13,36.05s14.56,27.12,5.44,40.47C280.09,324.32,300.36,305.56,310.78,272.21Z"/><path class="cls-6" d="M309.38,366H423.93c0-107.74-85.45-49.61-85.45-139.37H279.85c0,89.76-85,31.63-85,139.37Z"/><path class="cls-6" d="M246.73,172.09c-.27-3-12.72-6.64-16.87,3.32s3.32,24.06,17.42,25.17,10-1.39,10-1.39Z"/><path class="cls-6" d="M372.33,172.09c.27-3,12.72-6.64,16.87,3.32s-3.32,24.06-17.42,25.17-10-1.39-10-1.39Z"/><path class="cls-7" d="M339,224.15s-.16,4.18-.06,10.24c-11.23,28.23-46.12,31.41-59.06,1.17.14-6.69,0-11.41,0-11.41Z"/><path class="cls-6" d="M309.38,239.15c-73.39,1.76-110.44-179.21,0-174.58C419.82,59.94,382.77,240.91,309.38,239.15Z"/><path class="cls-5" d="M276.29,159.69a2,2,0,0,1-4,.39,8.59,8.59,0,0,1,.25-3.07,8.47,8.47,0,0,1,1.33-2.8,8.58,8.58,0,0,1,15.5,5.61,2,2,0,0,1-4-.26,4.56,4.56,0,0,0-.42-2.28,4.67,4.67,0,0,0-1.46-1.77,4.61,4.61,0,0,0-6.43,1,4.39,4.39,0,0,0-.71,1.48A4.46,4.46,0,0,0,276.29,159.69Z"/><path class="cls-8" d="M276.62,175.66c3.74,2.88,3.91,7.09.36,9.41s-9.45,1.87-13.2-1-3.91-7.09-.36-9.41S272.87,172.78,276.62,175.66Z"/><path class="cls-8" d="M342.55,175.66c-3.74,2.88-3.91,7.09-.36,9.41s9.45,1.87,13.2-1,3.91-7.09.36-9.41S346.3,172.78,342.55,175.66Z"/><path class="cls-9" d="M287.6,134c-.25-.11-.49-.21-.74-.3a18.79,18.79,0,0,0-8.4-1.09,18.46,18.46,0,0,0-7.84,2.46c-1.19.76-5.82,4.51-4.51,5.89.54.15,5.15-2.2,6.51-2.64a18.14,18.14,0,0,1,6.05-.82,16.25,16.25,0,0,1,5.55,1.13s.39.16.47.2c3.87,1.88,3.52,3.09,6.16,1.28C294.91,137.89,290.73,135.58,287.6,134Z"/><path class="cls-9" d="M331.16,134c.25-.11.49-.21.74-.3a18.79,18.79,0,0,1,8.4-1.09,18.46,18.46,0,0,1,7.84,2.46c1.19.76,5.82,4.51,4.51,5.89-.54.15-5.15-2.2-6.51-2.64a18.14,18.14,0,0,0-6.05-.82,16.25,16.25,0,0,0-5.55,1.13c-.05,0-.39.16-.47.2-3.87,1.88-3.52,3.09-6.16,1.28C323.85,137.89,328,135.58,331.16,134Z"/><path class="cls-10" d="M290.34,191q10.16-.14,20.24-.13t20.25.13c0,10.61-10.47,14.4-20.21,14.4h-.07C300.81,205.42,290.34,201.63,290.34,191Z"/><path class="cls-7" d="M305.93,211.74a.79.79,0,0,1,.8-1.37,7.85,7.85,0,0,0,3.89,1,7.44,7.44,0,0,0,3.81-1,.79.79,0,0,1,.82,1.35,9,9,0,0,1-4.63,1.2A9.42,9.42,0,0,1,305.93,211.74Z"/><path class="cls-7" d="M308.78,176.45a.79.79,0,0,1-.8-.79.8.8,0,0,1,.8-.8,38.52,38.52,0,0,0,6-.32c1.45-.24,2.52-.63,2.52-1.29,0-2.29-2.32-16.52-2.33-16.56a.79.79,0,0,1,1.57-.25s2.35,14.42,2.35,16.81c0,1.67-1.63,2.49-3.85,2.86A39.93,39.93,0,0,1,308.78,176.45Z"/><path class="cls-7" d="M384.69,183.26a.8.8,0,0,1-1.6,0c0-2.41-.41-3.93-1.08-4.76a1.93,1.93,0,0,0-1.48-.74,4.37,4.37,0,0,0-2.17.67,14.33,14.33,0,0,0-5.45,6.42,29.77,29.77,0,0,0-1.35,3.7,5.61,5.61,0,0,1,3.7-1.08,3.63,3.63,0,0,1,1.72.62,2.84,2.84,0,0,1,1.07,1.5c.32,1.09.07,2.56-1.1,4.3a.78.78,0,0,1-1.1.22.8.8,0,0,1-.22-1.1,3.8,3.8,0,0,0,.9-3,1.24,1.24,0,0,0-.48-.66,2,2,0,0,0-.94-.33,4.35,4.35,0,0,0-3.39,1.43,1.66,1.66,0,0,1-.81.5.87.87,0,0,1-1.15-.76v-.05a2.62,2.62,0,0,1,0-.92,24.73,24.73,0,0,1,1.69-5,16,16,0,0,1,6.12-7.17,5.93,5.93,0,0,1,3-.87,3.43,3.43,0,0,1,2.68,1.32C384.13,178.6,384.69,180.45,384.69,183.26Z"/><path class="cls-7" d="M235.66,183.26a.79.79,0,0,1-.79.8.8.8,0,0,1-.8-.8c0-2.81.56-4.66,1.45-5.76a3.43,3.43,0,0,1,2.68-1.32,5.93,5.93,0,0,1,3,.87,16,16,0,0,1,6.12,7.17,24.73,24.73,0,0,1,1.69,5,2.62,2.62,0,0,1,0,.92v.05a.87.87,0,0,1-1.15.76,1.66,1.66,0,0,1-.81-.5,4.35,4.35,0,0,0-3.39-1.43,2,2,0,0,0-.94.33,1.24,1.24,0,0,0-.48.66c-.2.67,0,1.67.9,3a.8.8,0,0,1-.22,1.1.78.78,0,0,1-1.1-.22c-1.17-1.74-1.43-3.21-1.1-4.3a2.84,2.84,0,0,1,1.07-1.5,3.63,3.63,0,0,1,1.71-.62,5.62,5.62,0,0,1,3.71,1.08,28.42,28.42,0,0,0-1.36-3.7,14.26,14.26,0,0,0-5.44-6.42,4.4,4.4,0,0,0-2.17-.67,1.93,1.93,0,0,0-1.48.74C236.08,179.33,235.66,180.85,235.66,183.26Z"/><path class="cls-11" d="M247.77,183.36c-7.4-14.44-7.29-30.56-8-36.76C233,85.82,270.82,57,308.21,58l1.17,0V81.82c-6.86-2.25-12.71-3.61-15.8-3.61l-1.14,0-1.14,0c-8.61,0-12.89,14.37-22.81,18.25-5.69,2.23-.25,28.52-6.13,41.75-1.44,3.24-9,10.82-10.69,11.58C246.58,155,246.05,160.78,247.77,183.36Z"/><path class="cls-11" d="M371,183.36c7.4-14.44,7.29-30.56,8-36.76C385.8,85.82,347.94,57,310.55,58l-1.17,0V81.82c6.86-2.25,12.7-3.61,15.8-3.61l1.14,0,1.14,0c8.61,0,12.89,18.36,22.81,22.25,5.69,2.23.25,24.52,6.12,37.75,1.44,3.24,9,10.82,10.7,11.58C372.18,155,372.71,160.78,371,183.36Z"/><polygon class="cls-12" points="309.38 366.04 396.71 366.04 391.87 336.09 226.89 336.09 222.05 366.04 309.38 366.04"/><path class="cls-12" d="M233.26,338.67a3.38,3.38,0,0,1-6.76-.22l6.73-49.11a3.38,3.38,0,0,1,6.76.21Z"/><path class="cls-12" d="M385.5,338.67a3.38,3.38,0,0,0,6.76-.22l-6.73-49.11a3.38,3.38,0,0,0-6.76.21Z"/><path class="cls-5" d="M333.73,159.69a2,2,0,1,1-4,.39A8.37,8.37,0,0,1,330,157a8.57,8.57,0,0,1,16-1.41,8.56,8.56,0,0,1,.79,4.22,2,2,0,0,1-4-.26,4.67,4.67,0,0,0-.42-2.28,4.6,4.6,0,0,0-7.89-.73,4.42,4.42,0,0,0-.72,1.48A4.67,4.67,0,0,0,333.73,159.69Z"/><path class="cls-13" d="M265.78,100.24c33.19-23.13,18.9,17.89,46.93,18,14,.05,26.73,5.69,26.5,17.52S338.9,152.84,351.7,159c24.8,11.91-22.53,53,39.6,55.24-6.5-30,24.32-39.69,13.9-65.71s-30.59-18.44-26.2-34.6c3.46-12.72,4.91-26.48-4.23-36.27-13.19-14.13-26.24.27-34.69-13.33C333,52.91,328.85,36,298.89,42.33,260.76,50.4,259.14,80.88,265.78,100.24Z"/><path class="cls-14" d="M270.06,86a.8.8,0,0,1-1.11.19.78.78,0,0,1-.18-1.1c1.26-1.79,4.26-3.74,7.88-5a24,24,0,0,1,8.3-1.38A14.47,14.47,0,0,1,293,81.22,13.52,13.52,0,0,1,298,88.05c2.47,7.1,4.75,11,7.92,13.24s7.3,2.76,13.47,3.07c6.41.32,14.06,1.34,20.22,4.76s10.95,9.35,11.27,19.38c.31,9.52,1.43,14.82,3.48,18s5,4.33,9,5.65c.3.09.57.19.82.28,4,1.47,6.91,4,8.38,7.65s1.42,8.35-.53,14.33c-.19.58-.38,1.15-.59,1.71-2.31,6.24-2.86,11.86-2,16.32s3.29,7.9,6.81,9.41a.8.8,0,1,1-.63,1.46c-4-1.72-6.74-5.47-7.74-10.56-.94-4.74-.37-10.66,2.05-17.18q.31-.87.57-1.65c1.83-5.61,1.87-10,.57-13.26s-3.91-5.42-7.47-6.74l-.75-.26c-4.37-1.42-7.6-2.74-9.87-6.31s-3.41-9-3.73-18.84c-.31-9.35-4.66-14.83-10.46-18.05s-13.3-4.24-19.52-4.55c-6.46-.33-10.84-.93-14.31-3.36s-5.92-6.59-8.51-14a11.91,11.91,0,0,0-4.32-6,12.84,12.84,0,0,0-7.22-2.19,22.21,22.21,0,0,0-7.73,1.29C273.85,82.78,271.14,84.5,270.06,86Z"/><path class="cls-14" d="M278.18,63.13a.79.79,0,1,1-.69-1.43,30.67,30.67,0,0,1,5.23-1.94A32.8,32.8,0,0,1,297,58.88c4.79.9,9,3.29,11.32,8a15.71,15.71,0,0,1,1,2.71c1.71,6.17,5,10.38,9.2,13A24.34,24.34,0,0,0,335,85.42a26.06,26.06,0,0,1,3.93-.28,33.63,33.63,0,0,1,16.25,4.25c5,2.89,8.91,7.26,9.8,13.17a16.89,16.89,0,0,1,.19,2.59c0,2.64-.07,5.19-.13,7.53-.26,9.53-.41,15.13,5,18.31l1.28.75h0c8.44,4.87,29.21,16.86,21.8,36.22-7.62,19.89-9.37,22.09-9.38,22.09a.79.79,0,0,1-1.11.15.79.79,0,0,1-.15-1.11s1.61-2,9.15-21.7c6.93-18.09-13-29.6-21.1-34.28h0l-1.29-.75c-6.22-3.65-6.06-9.6-5.78-19.72.06-2.22.12-4.65.12-7.49a16.49,16.49,0,0,0-.17-2.36c-.81-5.37-4.4-9.37-9-12a32,32,0,0,0-15.46-4,25.58,25.58,0,0,0-3.7.26,25.84,25.84,0,0,1-17.52-3.12c-4.48-2.77-8.06-7.29-9.89-13.87a14.45,14.45,0,0,0-.91-2.45c-2-4.16-5.85-6.29-10.18-7.11a31.31,31.31,0,0,0-13.57.85A30,30,0,0,0,278.18,63.13Z"/><rect class="cls-15" x="64.56" y="309.3" width="36.45" height="36.45" rx="2.45"/><use transform="translate(70.91 315.65) scale(0.25)" xlink:href="#image"/><rect class="cls-15" x="20.1" y="309.3" width="36.45" height="36.45" rx="2.45"/><use transform="translate(30.39 318.6) scale(0.19)" xlink:href="#image-2"/><rect class="cls-16" x="109.01" y="309.3" width="36.45" height="36.45" rx="2.45"/><use transform="translate(118.22 318.23) scale(0.19)" xlink:href="#image-3"/><rect class="cls-17" x="350" y="413.69" width="603.28" height="366.04" rx="2.55"/><circle class="cls-3" cx="936.27" cy="430.31" r="7.14"/><circle class="cls-3" cx="918.35" cy="430.31" r="7.14"/><circle class="cls-3" cx="900.42" cy="430.31" r="7.14"/><path class="cls-18" d="M567.24,574.87c3.32,17.43,7.82,25.67,8.28,35.27.5,10.1-14.49,20.07-21.73,23.27,8.84,26.55,27.46,23.6,39.61,24.78s6.22,19.25,38.36,17.9l15.32-110-79.84,8.73Zm97.87,2.5,11.59,98.72c32.14,1.35,26.21-16.72,38.36-17.9s30.77,1.77,39.61-24.78c-7.25-3.2-22.23-13.17-21.74-23.27.47-9.6,4.4-17.11,7.87-32.67l-18.95-7.71Z"/><path class="cls-6" d="M592.38,588.43c-.27-3-12.55-6.56-16.65,3.27s3.28,23.75,17.2,24.84,9.83-1.36,9.83-1.36Z"/><path class="cls-6" d="M716.35,588.43c.27-3,12.56-6.56,16.65,3.27s-3.27,23.75-17.2,24.84-9.82-1.36-9.82-1.36Z"/><path class="cls-6" d="M654.22,779.86H541.88c-1.3-57.44,42.9-90.79,80.85-103.23,3.08-16,2.29-36.82,2.29-36.82h58.39s-.78,20.79,2.3,36.82c37.94,12.44,82.14,45.79,80.84,103.23Z"/><path class="cls-7" d="M683.42,639.81s-.16,4.12-.06,10.11c-11.09,27.86-45.53,31-58.3,1.16.14-6.61,0-11.27,0-11.27Z"/><path class="cls-12" d="M770.38,779.86c1.33-56.73-43.23-90-82.13-102.75-7.79,17.28-60,17.2-67.75-.11-39,12.73-83.78,46-82.44,102.86Z"/><path class="cls-6" d="M654.22,654.62c-72.44,1.74-109-176.89,0-172.31C763.23,477.73,726.65,656.36,654.22,654.62Z"/><path class="cls-19" d="M629.88,568.4a6.49,6.49,0,1,1-9.07,1.46A6.48,6.48,0,0,1,629.88,568.4Z"/><path class="cls-19" d="M679,568.4a6.49,6.49,0,1,0,9.07,1.46A6.48,6.48,0,0,0,679,568.4Z"/><path class="cls-8" d="M621.88,592c3.7,2.84,3.86,7,.36,9.29s-9.33,1.84-13-1-3.86-7-.36-9.28S618.18,589.11,621.88,592Z"/><path class="cls-8" d="M687,592c-3.7,2.84-3.86,7-.36,9.29s9.33,1.84,13-1,3.86-7,.36-9.28S690.66,589.11,687,592Z"/><path class="cls-9" d="M632.72,550.78l-.73-.29a18.73,18.73,0,0,0-8.29-1.08,18.28,18.28,0,0,0-7.74,2.43c-1.17.75-5.75,4.45-4.45,5.82.53.14,5.08-2.18,6.42-2.62a18.2,18.2,0,0,1,6-.8,16,16,0,0,1,5.47,1.11c.06,0,.39.17.47.2,3.82,1.85,3.47,3.05,6.08,1.26C639.94,554.68,635.81,552.39,632.72,550.78Z"/><path class="cls-9" d="M675.72,550.78l.73-.29a18.73,18.73,0,0,1,8.29-1.08,18.32,18.32,0,0,1,7.74,2.43c1.17.75,5.74,4.45,4.45,5.82-.53.14-5.09-2.18-6.43-2.62a18.17,18.17,0,0,0-6-.8,16,16,0,0,0-5.48,1.11s-.39.17-.46.2c-3.82,1.85-3.48,3.05-6.08,1.26C668.5,554.68,672.63,552.39,675.72,550.78Z"/><path class="cls-10" d="M635.43,607.11q10-.14,20-.13t20,.13c0,10.47-10.33,14.21-19.94,14.21h-.07C645.76,621.32,635.43,617.58,635.43,607.11Z"/><path class="cls-7" d="M650.81,627.57a.8.8,0,0,1-.28-1.08.78.78,0,0,1,1.07-.27,7.75,7.75,0,0,0,3.84.94,7.37,7.37,0,0,0,3.76-.94.78.78,0,0,1,1.07.27.77.77,0,0,1-.26,1.07,9,9,0,0,1-4.57,1.18A9.39,9.39,0,0,1,650.81,627.57Z"/><path class="cls-7" d="M653.63,592.73a.78.78,0,0,1-.79-.78.79.79,0,0,1,.79-.79,37.57,37.57,0,0,0,5.87-.31c1.43-.24,2.48-.63,2.48-1.28,0-2.26-2.29-16.3-2.29-16.34a.78.78,0,0,1,.65-.9.77.77,0,0,1,.89.65s2.33,14.23,2.33,16.59c0,1.65-1.61,2.46-3.8,2.83A39,39,0,0,1,653.63,592.73Z"/><path class="cls-7" d="M728.55,599.46a.79.79,0,0,1-1.57,0c0-2.39-.42-3.89-1.08-4.7a1.87,1.87,0,0,0-1.46-.73,4.28,4.28,0,0,0-2.14.66,14.08,14.08,0,0,0-5.37,6.34,29,29,0,0,0-1.34,3.64,5.58,5.58,0,0,1,3.66-1.06,3.41,3.41,0,0,1,1.69.61,2.74,2.74,0,0,1,1,1.48c.33,1.08.08,2.52-1.08,4.25a.78.78,0,0,1-1.08.22.79.79,0,0,1-.22-1.09c.86-1.29,1.08-2.27.88-2.93a1.23,1.23,0,0,0-.47-.66,1.87,1.87,0,0,0-.93-.32,4.31,4.31,0,0,0-3.34,1.41,1.85,1.85,0,0,1-.8.5.85.85,0,0,1-1.13-.76l0,0a2.93,2.93,0,0,1,0-.92,25,25,0,0,1,1.66-5,15.89,15.89,0,0,1,6-7.08,5.88,5.88,0,0,1,2.94-.86,3.42,3.42,0,0,1,2.65,1.31C728,594.86,728.55,596.69,728.55,599.46Z"/><path class="cls-7" d="M581.46,599.46a.79.79,0,0,1-1.57,0c0-2.77.55-4.6,1.43-5.69a3.41,3.41,0,0,1,2.65-1.31,5.91,5.91,0,0,1,2.94.86,15.87,15.87,0,0,1,6,7.08,24.51,24.51,0,0,1,1.67,5,2.62,2.62,0,0,1,0,.92v0a.86.86,0,0,1-1.13.76,1.75,1.75,0,0,1-.8-.5,4.32,4.32,0,0,0-3.35-1.41,2,2,0,0,0-.93.32,1.28,1.28,0,0,0-.47.66,3.74,3.74,0,0,0,.89,2.93.79.79,0,0,1-1.31.87c-1.15-1.73-1.4-3.17-1.08-4.25a2.81,2.81,0,0,1,1.06-1.48,3.41,3.41,0,0,1,1.69-.61,5.6,5.6,0,0,1,3.66,1.06,29,29,0,0,0-1.34-3.64,14,14,0,0,0-5.38-6.34A4.25,4.25,0,0,0,584,594a1.85,1.85,0,0,0-1.46.73C581.87,595.57,581.46,597.07,581.46,599.46Z"/><path class="cls-20" d="M572.3,746.17a1.18,1.18,0,0,1,2.35,0l-.29,32.5a1.17,1.17,0,0,1-1.18,1.17,1.19,1.19,0,0,1-1.17-1.19Z"/><path class="cls-20" d="M734.08,746.17a1.17,1.17,0,0,1,2.34,0l-.29,32.5a1.17,1.17,0,1,1-2.34,0Z"/><path class="cls-21" d="M585.23,572c1,10.39,10.18,26.18,12,30.76s.21-14.76.21-39.48S585.23,572,585.23,572Z"/><path class="cls-21" d="M723.52,572c-1,10.39-10.18,26.18-12,30.76s-.21-14.76-.21-39.48S723.52,572,723.52,572Z"/><path class="cls-22" d="M644.14,502.91c-8.7,0-17,16.32-17.7,30-2.62,48.37-49.1,31.73-54.26,61.79-1.88-5.61-6.61-24.52-7.12-26.89-3.77-17.73,19.63-38.11,24-57.06,4.48-19.33,15.58-34.34,29.33-41.09,12-5.9,25.46-5.66,31.91,1.56,2,1.6,3.89,3.49,3.89,3.49s1.64-1.64,3.47-3.16c6.32-7.88,20.24-8.3,32.74-1.89,13.47,6.9,24.52,22.15,28.91,41.09s27.8,39.33,24,57.06c-.5,2.37-5.23,21.28-7.12,26.89-5.15-30.06-46.79-15.09-51.89-63.27-1.77-16.72-9.41-24.89-16.81-26.28-.83-.16-6.95-2.05-12.62,6.83C653.51,514.16,652.55,502.92,644.14,502.91Z"/><path class="cls-23" d="M574.14,580.56a.78.78,0,0,1-1.3-.88c.59-.86,1.17-1.76,1.75-2.64,4.49-6.87,8.29-12.67,24-16.8,14.88-3.89,17.63-22.81,20-39.3.33-2.24.65-4.44,1-6.61a36.94,36.94,0,0,1,2.65-9,27.55,27.55,0,0,1,9.4-11.71c3.68-2.51,7.6-3.52,10.87-3a9.36,9.36,0,0,1,2.28.67l7.48,3.33a.78.78,0,1,1-.63,1.43l-7.48-3.33a7.83,7.83,0,0,0-1.91-.56c-2.88-.47-6.38.47-9.73,2.75a26,26,0,0,0-8.85,11,34.72,34.72,0,0,0-2.53,8.62c-.34,2.08-.66,4.31-1,6.58-2.47,17-5.31,36.44-21.2,40.6-15.17,4-18.81,9.54-23.13,16.14C575.35,578.76,574.78,579.62,574.14,580.56Z"/><path class="cls-23" d="M573,559.26a.79.79,0,1,1-1.44-.63,20.37,20.37,0,0,1,6.78-8.7h0a29.47,29.47,0,0,1,9.93-4.23c14.88-3.9,17.63-22.81,20-39.3.32-2.25.64-4.45,1-6.61a31.57,31.57,0,0,1,2.51-8.35,23,23,0,0,1,25.5-13.58,32.08,32.08,0,0,1,8.41,2.64.78.78,0,0,1-.66,1.42,31,31,0,0,0-8-2.51,22.09,22.09,0,0,0-14.2,2.15,22.37,22.37,0,0,0-9.62,10.53,30.5,30.5,0,0,0-2.39,8c-.34,2.08-.66,4.31-1,6.58-2.47,17-5.31,36.43-21.19,40.59a28.11,28.11,0,0,0-9.41,4h0A18.8,18.8,0,0,0,573,559.26Z"/><path class="cls-23" d="M738.29,579.68a.78.78,0,0,1-1.3.88c-.64-.94-1.21-1.8-1.76-2.66-4.32-6.6-8-12.17-23.14-16.14-15.88-4.16-18.72-23.63-21.19-40.6-.33-2.27-.65-4.5-1-6.58a35.15,35.15,0,0,0-2.53-8.62,26,26,0,0,0-8.85-11c-3.35-2.28-6.85-3.22-9.74-2.75a7.89,7.89,0,0,0-1.9.56l-7.48,3.33a.78.78,0,1,1-.63-1.43l7.48-3.33a9.23,9.23,0,0,1,2.28-.67c3.27-.53,7.19.48,10.87,3a27.55,27.55,0,0,1,9.4,11.71,36.5,36.5,0,0,1,2.64,9c.36,2.17.68,4.37,1,6.61,2.4,16.49,5.16,35.41,20,39.3,15.76,4.13,19.55,9.93,24,16.8C737.11,577.92,737.7,578.82,738.29,579.68Z"/><path class="cls-23" d="M739.58,558.63a.78.78,0,1,1-1.43.63,18.8,18.8,0,0,0-6.26-8.06l0,0a28.15,28.15,0,0,0-9.37-4c-15.88-4.16-18.72-23.62-21.19-40.59-.33-2.27-.66-4.5-1-6.58a30.89,30.89,0,0,0-2.39-8,22.34,22.34,0,0,0-9.63-10.53,22.08,22.08,0,0,0-14.2-2.15,31.14,31.14,0,0,0-8,2.51.78.78,0,1,1-.65-1.42,32.08,32.08,0,0,1,8.41-2.64,23,23,0,0,1,25.5,13.58,31.57,31.57,0,0,1,2.51,8.35c.36,2.16.67,4.36,1,6.61,2.4,16.49,5.16,35.4,20,39.3a29.65,29.65,0,0,1,9.88,4.19l0,0A20.22,20.22,0,0,1,739.58,558.63Z"/><rect class="cls-24" x="852.37" y="723.28" width="36.45" height="36.45" rx="2.45"/><use transform="translate(858.72 729.62) scale(0.25)" xlink:href="#image"/><rect class="cls-24" x="807.92" y="723.28" width="36.45" height="36.45" rx="2.45"/><use transform="translate(818.2 732.57) scale(0.19)" xlink:href="#image-2"/><rect class="cls-16" x="896.83" y="723.28" width="36.45" height="36.45" rx="2.45"/><use transform="translate(906.04 732.21) scale(0.19)" xlink:href="#image-3"/><path class="cls-2" d="M304.79,510.34a96.65,96.65,0,1,1-100-96.59h0c1.11,0,2.22-.06,3.34-.06a96.63,96.63,0,0,1,96.64,96.65Z"/><path class="cls-17" d="M217.4,570.78c-1.73,7.76-1.22,16.53,3.72,22.76-.22,2.25-3.5,2.89-5.43,1.7s-3-3.35-4.52-5c-2.46-2.71-6-4.09-9.46-5.38-12.36-4.66-25.56-10.21-32.27-21.58C164,554,164,542.17,167.57,532c1.79-5,4.43-9.86,5.07-15.17s-1.45-11.51-6.45-13.41c-4-1.54-8.41.07-12.68,0-6.55-.13-12.28-4.2-17.54-8.11L116.81,481.1l-.64-.48a96.66,96.66,0,0,1,88.63-66.87h0a72.13,72.13,0,0,1,4.52,7.77,97.26,97.26,0,0,1,10.94,33,94.65,94.65,0,0,1,.73,19.69c-.23,3.39-.78,7.06-3.24,9.39-1.72,1.62-4.08,2.31-6.32,3-10.37,3.32-20.85,9-25.61,18.8-.78,1.61-1.37,3.57-.51,5.14a5.42,5.42,0,0,0,2.23,1.95c5.31,2.94,11.75,3,17.38,5.22s10.63,8.81,7.67,14.1A30.27,30.27,0,0,1,224.22,540a8.11,8.11,0,0,1,2.2,4,9,9,0,0,1-.81,4.48C222.82,555.87,219.14,563,217.4,570.78Z"/><path class="cls-17" d="M304.79,510.34A96.09,96.09,0,0,1,294,554.8c-2.28.28-4.57.52-6.85.74-3.12.3-6.34.6-9.13,2.07s-5,4.2-7.36,6.55a43.17,43.17,0,0,1-15.42,10c-1.88.71-4.38,1.13-5.61-.47a4.58,4.58,0,0,1-.69-2.94c.12-7.75,3.93-15,8.06-21.51s8.76-13,10.86-20.49,1.08-16.42-4.75-21.54a20.44,20.44,0,0,1-3.13-2.89c-2.75-3.69-.64-8.93,1.91-12.75s5.62-8.11,4.51-12.57c-1.86-7.48-12.76-7.68-18.13-13.21-6.26-6.42-2.63-17.63,3.81-23.85A80.56,80.56,0,0,1,263,433.64l2.07-1.43A96.53,96.53,0,0,1,304.79,510.34Z"/><path class="cls-25" d="M304,522.9A96.66,96.66,0,0,1,125.86,561a103.51,103.51,0,0,0,17.94,13.59q2,1.22,4.12,2.34c21.79,11.64,48.1,14.94,71.83,8.08,11.66-3.37,22.53-9,32.79-15.53A201.92,201.92,0,0,0,304,522.9Z"/><rect class="cls-26" x="137.66" y="563.67" width="8.72" height="35.39"/><rect class="cls-26" x="137.66" y="563.67" width="8.72" height="35.39" transform="translate(723.39 439.35) rotate(90)"/></g></g></g></svg>