<svg xmlns="http://www.w3.org/2000/svg" viewBox="0 0 925.95 881.09"><defs><style>.cls-1{fill:#22232b;}.cls-2{fill:#f4a07a;}.cls-3{fill:#fff;}.cls-4{fill:#f08668;}.cls-5{fill:#f5ac83;}.cls-6{fill:#911913;}.cls-7{fill:#ea5b67;}.cls-8{fill:#284de2;}.cls-9{fill:#d98f77;fill-rule:evenodd;}</style></defs><g id="Camada_2" data-name="Camada 2"><g id="Camada_1-2" data-name="Camada 1"><path class="cls-1" d="M479.88,679.26c7.66,15,15.58,30.44,23.4,46.84C528.16,778.38,476.81,785,476.81,785s22.45,35.61.5,64.11-57.84,13.22-57.84,13.22-9.68,15.5-41.25,17.44c-45.8,2.81-65.46-15-65.46-15l-49.64-8.32C257.3,859.83,241.53,872,203,876c-45.68,4.77-71-9.28-71-9.28-8.63,23.13-67.1,19.07-79.45-17.54-11.6-34.4,2.83-48.48,4.61-50.08-26.78,20.43-85.6-34.79-40.82-87.16,18.21-21.3,28.57-31.21,35-41.87-23.17,5.48-52.55-21.4-45.52-44.87C14.81,594.92,42.08,607,60,563.53c23.79-57.71,45.87-77.41,47.17-78.53l0,0c36.38-38.74,95.33-65.43,164.73-61.36,59,3.47,97.74,35.39,121.2,59a136.88,136.88,0,0,1,37.56,71.95q1.49,8.21,3.51,16.18c11.2,19.09,33.3,52.93,54.72,63.2C518,647.93,508.86,685,479.88,679.26Z"/><path class="cls-2" d="M140.43,655.93S113.16,630.27,91.37,647c-25.73,19.78,1.19,91,46.84,83.43Z"/><path class="cls-3" d="M126.31,727a13.05,13.05,0,1,1-13-12.55A12.8,12.8,0,0,1,126.31,727Z"/><path class="cls-4" d="M133.13,706.85c-3.67-10.7-14.12-32.75-40-42.58,0,0,27.63,25.05,29.73,44.44a5,5,0,0,0,5.1,4.42l.61,0A4.78,4.78,0,0,0,133.13,706.85Z"/><path class="cls-2" d="M370.7,655.93S398,630.27,419.76,647c25.73,19.78-1.19,91-46.84,83.43Z"/><path class="cls-3" d="M415.64,727a13.05,13.05,0,1,1-13.05-12.55A12.8,12.8,0,0,1,415.64,727Z"/><path class="cls-4" d="M378,706.85c3.67-10.7,14.12-32.75,40-42.58,0,0-27.63,25.05-29.73,44.44a5,5,0,0,1-5.1,4.42l-.61,0A4.78,4.78,0,0,1,378,706.85Z"/><path class="cls-5" d="M402,628.83c-.37,4.12-.81,8.38-1.26,12.64C391.32,730,362.9,841.83,261.39,841.83c-99.13,0-138.18-105.54-151-191.85-.88-6.31-1.69-12.42-2.36-18.45C99,549.48,165.21,477.23,251,476.31h7.67c63.78.78,116.86,40.74,136.13,95A133.91,133.91,0,0,1,402,628.83Z"/><path class="cls-4" d="M260.59,799.13a64.09,64.09,0,0,1-22.29-6.6,3.57,3.57,0,0,1-1.39-5,3.86,3.86,0,0,1,5.16-1.34c1.07.58,25.54,13.65,49.05-.8a3.89,3.89,0,0,1,5.23,1.11,3.56,3.56,0,0,1-1.15,5A53.93,53.93,0,0,1,260.59,799.13Z"/><path class="cls-4" d="M272.3,714.49H252.63a3.89,3.89,0,1,1,0-7.77H272.3a.88.88,0,0,0,.72-.35.82.82,0,0,0,.15-.77l-16.34-53.76a3.87,3.87,0,0,1,2.75-4.82,4.06,4.06,0,0,1,5,2.64l16.34,53.76a8.29,8.29,0,0,1-1.44,7.61A9,9,0,0,1,272.3,714.49Z"/><path class="cls-1" d="M220.59,599.44h0a7.54,7.54,0,0,1-7.44,8.33c-15.19.4-46.9,3.19-62.26,18.81,0,0,5.08-27,61-33.65A7.71,7.71,0,0,1,220.59,599.44Z"/><path class="cls-1" d="M299.62,597.82h0a7.55,7.55,0,0,0,7.69,8.11c15.19,0,47,1.87,62.8,17.05,0,0-5.89-26.87-62-31.92A7.68,7.68,0,0,0,299.62,597.82Z"/><path class="cls-1" d="M384.75,590.36c-38-3.12-136.17-32.15-225.45-63.23,0,0,7.83,87.72-45.17,131.94a28,28,0,0,0-3.7-9.09c-.88-6.31-1.69-12.42-2.36-18.45C99,549.48,165.21,477.23,251,476.31h7.67c63.78.78,116.86,40.74,136.13,95a133,133,0,0,1,5.46,20.09S394.64,591.22,384.75,590.36Z"/><path class="cls-1" d="M402,628.83c-.37,4.12-.81,8.38-1.26,12.64-11.95-6.61-15.2-33.93-16-51.11-.45-8.44-.3-14.4-.3-14.4s.66-3,10.34-4.62A133.91,133.91,0,0,1,402,628.83Z"/><path class="cls-3" d="M330.26,738.86a55,55,0,0,1-4.84,9.56,68.28,68.28,0,0,1-23.78,23.32q-2.11,1.23-4.42,2.31a71.26,71.26,0,0,1-31.17,6.69,76.07,76.07,0,0,1-28.69-5.21c-1.37-.55-2.7-1.14-4-1.75a63,63,0,0,1-24.52-21.09A50.59,50.59,0,0,1,203.08,742c.11,0,1.87.94,5,2.23a152.21,152.21,0,0,0,56.77,10.45h1.15l1.27,0a150.52,150.52,0,0,0,56.87-12.79C327.93,740.15,330.07,739,330.26,738.86Z"/><path class="cls-3" d="M297.22,774.05a71.26,71.26,0,0,1-31.17,6.69,76.07,76.07,0,0,1-28.69-5.21c6.34-3,16.18-5.84,30.69-5.84A94,94,0,0,1,297.22,774.05Z"/><path class="cls-3" d="M330.26,738.86a55,55,0,0,1-4.84,9.56c-9.23,5.06-28.81,13.43-57.37,13.43-29.72,0-50.2-5.93-59.18-9.16A50.59,50.59,0,0,1,203.08,742c.11,0,1.87.94,5,2.23a152.21,152.21,0,0,0,56.77,10.45h1.15l1.27,0a150.52,150.52,0,0,0,56.87-12.79C327.93,740.15,330.07,739,330.26,738.86Z"/><path class="cls-1" d="M297.22,659.34s5.93-22.55,30.61-22.55c21.32,0,30.63,16.92,30.61,30.1,0,0-11.61-23.13-32.44-21.49C310.1,646.66,297.22,659.34,297.22,659.34Z"/><path class="cls-1" d="M227.26,659.34s-5.93-22.55-30.61-22.55c-21.32,0-30.63,16.92-30.61,30.1,0,0,11.61-23.13,32.44-21.49C214.38,646.66,227.26,659.34,227.26,659.34Z"/><path class="cls-2" d="M615.27,250.77s-30-29.32-53.9-10.19c-28.28,22.61,1.3,104,51.46,95.35Z"/><path class="cls-4" d="M597.78,315.69a5,5,0,0,1-4.76-4.56c-3.23-40-26.67-47-27.67-47.26a5,5,0,0,1,2.53-9.59c1.28.33,31.21,8.62,35,56a5,5,0,0,1-4.54,5.34A5.52,5.52,0,0,1,597.78,315.69Z"/><path class="cls-4" d="M569.75,295.28a5,5,0,0,1-3.42-8.37,28.12,28.12,0,0,1,26.74-6.75,5,5,0,1,1-2.46,9.6,18,18,0,0,0-17.09,4A4.93,4.93,0,0,1,569.75,295.28Z"/><path class="cls-2" d="M844.31,250.77s30-29.32,53.9-10.19c28.28,22.61-1.3,104-51.45,95.35Z"/><path class="cls-4" d="M861.8,315.69a5,5,0,0,0,4.77-4.56c3.22-40,26.66-47,27.66-47.26a5,5,0,0,0-2.53-9.59c-1.27.33-31.2,8.62-35,56a5,5,0,0,0,4.55,5.34A5.43,5.43,0,0,0,861.8,315.69Z"/><path class="cls-4" d="M889.83,295.28a5,5,0,0,0,3.42-8.37,28.11,28.11,0,0,0-26.74-6.75,5,5,0,1,0,2.46,9.6,18,18,0,0,1,17.09,4A5,5,0,0,0,889.83,295.28Z"/><path class="cls-5" d="M731.29,443.4c-103.55,0-135.52-123-145-213-8.79-83,55.68-156.2,139.16-157.15,1.11,0,2.23,0,3.35,0l4.15,0c82.46,1.1,146.7,72.29,139.57,154.45C864.56,318.88,834.8,443.4,731.29,443.4Z"/><path class="cls-1" d="M864.1,11.28c52.54,35.93,5,106,5,106s52.31,51.21-1.53,171.75L858,287.08c6.11-38.6,2.44-85.59,0-93-7.28-22-46-33.79-44-57.61,0,0-118.53,37.06-182.69.66,0,0-5.06,30.54-22.64,49.8-14.71,16.11-6.33,72.22-4.44,96.5l-9.85,1c-5.83-24.73-20.08-69.27-21.61-82.39-1-8.27-4.49-41.07-6-64.52-1.32-20.55,2.36-41.24,11.66-59.61,5.14-10.16,12.3-20.36,22.16-27.69C635,24.56,816.46-21.31,864.1,11.28Z"/><path class="cls-6" d="M797,327a61.17,61.17,0,1,1-122.31,2.25v-.5L797,326.5C797,326.67,797,326.83,797,327Z"/><path class="cls-3" d="M797,327a61,61,0,0,1-.77,10.95l-120.36,2.22a60.34,60.34,0,0,1-1.18-10.92v-.5L797,326.5C797,326.67,797,326.83,797,327Z"/><path class="cls-7" d="M781.53,368.76a61.14,61.14,0,0,1-89.86,1.66c10.58-10.75,26.58-17.75,44.61-18.08S770.56,358.41,781.53,368.76Z"/><path class="cls-1" d="M647.91,261.13s2.59-31.13,27.86-33.65c26.13-2.61,32.75,25.63,32.75,25.63S676.17,210,647.91,261.13Z"/><path class="cls-1" d="M823.27,261.13s-2.6-31.13-27.87-33.65c-26.13-2.61-32.75,25.63-32.75,25.63S795,210,823.27,261.13Z"/><path class="cls-1" d="M638.58,223.55s.28-22.64,15.32-35.36c13.92-11.77,27.25-13,34.41-12.6a6.31,6.31,0,0,1,5.88,5.81h0a6.33,6.33,0,0,1-6.29,6.87C676.14,188.33,652.19,192.55,638.58,223.55Z"/><path class="cls-1" d="M829,221.64s-1.19-22.61-16.73-34.71c-14.38-11.21-27.74-11.92-34.89-11.21a6.3,6.3,0,0,0-5.64,6h0a6.33,6.33,0,0,0,6.56,6.61C790.1,188,814.2,191.21,829,221.64Z"/><path class="cls-4" d="M731.53,314.13a5.46,5.46,0,0,1-2.34-10.08l15.58-9.62-12.23-4.5a5.46,5.46,0,0,1-3.56-4.79L726.87,250a5.46,5.46,0,0,1,10.9-.66l1.9,31.57,19.41,7.14a5.46,5.46,0,0,1,1,9.77l-25.13,15.51A5.41,5.41,0,0,1,731.53,314.13Z"/><path class="cls-4" d="M736.45,402.78a55.29,55.29,0,0,1-30.07-7.94,3.81,3.81,0,0,1,3.89-6.55c25.39,15.12,50.09.72,51.13.1a3.81,3.81,0,0,1,3.92,6.53A63.23,63.23,0,0,1,736.45,402.78Z"/><path class="cls-8" d="M904.94,530.59H622a21,21,0,0,0-21,21V706.86a21,21,0,0,0,21,21h26.68l-10.62,45.78a3.83,3.83,0,0,0,6.41,3.61l50.7-49.39H904.94a21,21,0,0,0,21-21V551.59A21,21,0,0,0,904.94,530.59ZM709.45,591.87a6.12,6.12,0,0,1,6.13-6.13H790a6.12,6.12,0,0,1,6.12,6.13v8.88a6.12,6.12,0,0,1-6.12,6.12H715.58a6.12,6.12,0,0,1-6.13-6.12Zm19.65,31.6v8.88a6.12,6.12,0,0,1-6.12,6.13H679.35a6.12,6.12,0,0,1-6.12-6.13v-8.88a6.12,6.12,0,0,1,6.12-6.12H723A6.12,6.12,0,0,1,729.1,623.47Zm-99-31.6a6.12,6.12,0,0,1,6.13-6.13H692a6.12,6.12,0,0,1,6.12,6.13v8.88a6.12,6.12,0,0,1-6.12,6.12h-55.7a6.12,6.12,0,0,1-6.13-6.12Zm0,31.6a6.12,6.12,0,0,1,6.13-6.12h20.64a6.13,6.13,0,0,1,6.13,6.12v8.88a6.13,6.13,0,0,1-6.13,6.13H636.25a6.12,6.12,0,0,1-6.13-6.13Zm104.1,43a6.14,6.14,0,0,1-6.13,6.13H636.25a6.13,6.13,0,0,1-6.13-6.13v-8.88a6.12,6.12,0,0,1,6.13-6.12h91.84a6.13,6.13,0,0,1,6.13,6.12ZM740.09,633v-8.88a6.13,6.13,0,0,1,6.12-6.13h89.73a6.13,6.13,0,0,1,6.12,6.13V633a6.12,6.12,0,0,1-6.12,6.12H746.21A6.12,6.12,0,0,1,740.09,633Zm162,33.54a6.14,6.14,0,0,1-6.13,6.13H750.83a6.14,6.14,0,0,1-6.13-6.13v-8.88a6.13,6.13,0,0,1,6.13-6.12H895.94a6.13,6.13,0,0,1,6.13,6.12Zm0-34.15a6.13,6.13,0,0,1-6.13,6.13H858.8a6.13,6.13,0,0,1-6.13-6.13v-8.88a6.13,6.13,0,0,1,6.13-6.12h37.14a6.13,6.13,0,0,1,6.13,6.12Zm0-31.6a6.13,6.13,0,0,1-6.13,6.12H812.63a6.13,6.13,0,0,1-6.13-6.12v-8.88a6.13,6.13,0,0,1,6.13-6.13h83.31a6.13,6.13,0,0,1,6.13,6.13Z"/><path class="cls-9" d="M185.87,696.2c6.34,4.86,6.62,12,.62,15.92s-16,3.16-22.34-1.71-6.62-12-.62-15.92S179.53,691.33,185.87,696.2Z"/><path class="cls-9" d="M339.42,693c-6.34,4.87-6.62,12-.62,15.92s16,3.17,22.34-1.7,6.61-12,.62-15.92S345.76,688.13,339.42,693Z"/><path class="cls-8" d="M416.42,119.09H133.79a21,21,0,0,0-21,21V295.36a21,21,0,0,0,21,21H343.33L394,365.76a3.83,3.83,0,0,0,6.4-3.61l-10.6-45.78h26.64a21,21,0,0,0,21-21V140.09A21,21,0,0,0,416.42,119.09ZM220.37,182a10.3,10.3,0,0,1,10.3-10.3h66.08a10.3,10.3,0,0,1,10.3,10.3v.53a10.3,10.3,0,0,1-10.3,10.3H230.67a10.3,10.3,0,0,1-10.3-10.3ZM240,213.65v.53a10.3,10.3,0,0,1-10.3,10.3H194.44a10.3,10.3,0,0,1-10.3-10.3v-.53a10.3,10.3,0,0,1,10.3-10.3h35.28A10.3,10.3,0,0,1,240,213.65ZM141,182a10.3,10.3,0,0,1,10.3-10.3h47.35A10.3,10.3,0,0,1,209,182v.53a10.3,10.3,0,0,1-10.3,10.3H151.34a10.3,10.3,0,0,1-10.3-10.3Zm0,31.61a10.3,10.3,0,0,1,10.3-10.3h12.29a10.3,10.3,0,0,1,10.3,10.3v.53a10.3,10.3,0,0,1-10.3,10.3H151.34a10.3,10.3,0,0,1-10.3-10.3Zm104.09,34.68a10.3,10.3,0,0,1-10.3,10.3H151.34a10.3,10.3,0,0,1-10.3-10.3v-.53a10.3,10.3,0,0,1,10.3-10.3h83.49a10.3,10.3,0,0,1,10.3,10.3ZM251,214.78v-.53A10.3,10.3,0,0,1,261.3,204h81.38a10.3,10.3,0,0,1,10.3,10.3v.53a10.3,10.3,0,0,1-10.3,10.3H261.3A10.3,10.3,0,0,1,251,214.78Zm162,33.55a10.3,10.3,0,0,1-10.3,10.3H265.92a10.3,10.3,0,0,1-10.3-10.3v-.53a10.3,10.3,0,0,1,10.3-10.3H402.68A10.3,10.3,0,0,1,413,247.8Zm0-34.15a10.3,10.3,0,0,1-10.3,10.3H373.89a10.3,10.3,0,0,1-10.3-10.3v-.53a10.3,10.3,0,0,1,10.3-10.3h28.79a10.3,10.3,0,0,1,10.3,10.3Zm0-31.61a10.3,10.3,0,0,1-10.3,10.3h-75a10.3,10.3,0,0,1-10.3-10.3V182a10.3,10.3,0,0,1,10.3-10.3h75A10.3,10.3,0,0,1,413,182Z"/></g></g></svg>