<svg xmlns="http://www.w3.org/2000/svg" viewBox="0 0 1078.42 1056.59"><defs><style>.cls-1{fill:#284de2;fill-rule:evenodd;}</style></defs><g id="Camada_2" data-name="Camada 2"><g id="Camada_1-2" data-name="Camada 1"><path class="cls-1" d="M914.05,622.78c5.94-8,31.62-95,31.62-107,0-4.85-10.33-18.88-23.28-31.65-12.8-12.62-24.35-27.23-25.66-32.48-3.07-12.2,12.64-68.29,68.44-244.34l44.91-141.69c.66-2.61,1.27-5.44,1.79-8.48.44-2.63.77-5.14,1-7.5s.32-5,.35-7.77c0-3.67-.14-7.09-.41-10.22-.26-4.79-1.71-23-14.09-29.77A19.75,19.75,0,0,0,995.43.45c-18.65-1.48-29.34,1-35.72,2.68-14.57,3.78-25.48,6.05-27.33,6.56-25.73,7.11-56,23.13-157,77.94-75.45,41-78.3,43-83.91,59.85-3.45,10.38-10,19.61-16.18,22.75-7.69,3.92-52.68,5.3-173.83,5.35-182.47.08-177.26.92-184.74-29.89-3.49-14.37-8.16-17.41-113.81-74.3S91.13,11.8,51.88,5.13C3.82-3,5.17-3.93.94,38.94-1.89,67.54-1,71.06,43.15,210.7c24.79,78.41,51.13,164.4,58.53,191.08l13.44,48.51L104,481c-6.15,16.87-11.16,35.66-11.16,41.75,0,10.39,26.55,106.12,31.74,114.5,1.31,2.12,42.44,18,91.4,35.26,52.79,18.63,92.83,35.21,98.38,40.74,8.06,8,23.91,51.65,33.92,93.34,2.69,11.2,3.6,12.64-5.15,14.63-6.25,1.42-8.45,3-14.31.09s-6.67,1-17.17-22.87c-23.33-53.13-19.3-49.35-76.66-71.88C206,715.15,179.2,706.44,175.4,707.18c-4.81.93,15.27,26.77,65.87,84.8,40,45.9,74,86.72,75.5,90.71s.94,13.47-1.25,21.07c-3.43,12-1.32,19.72,15.47,57,10.7,23.71,22.86,46.58,27,50.8,9.13,9.28,47.65,21.72,47.65,15.39,0-2.38-5.06-21.89-11.24-43.36-9-31.23-10.77-44.63-8.89-67.14,2.11-25.36-10.83-211.09-16.34-234.65-1.66-7-13.41-15.24-44-30.61-22.94-11.54-46.77-26.47-53-33.17-21.1-22.85-81.56-125.19-79.93-135.31,1.23-7.61,6.75-1.38,27.07,30.47,72.91,114.29,60,99.87,114.2,127.68l48.48,24.89,7.5,77c4.12,42.37,8.32,106.9,9.31,143.41,1.33,48.63,4.18,75.4,10.68,100.18,4.88,18.61,9.67,34.63,10.64,35.6s18.83,8.24,39.68,16.14,39.73,14.5,42,14.67c6.64.49,76.9-26.31,82.72-31.56,11.17-10.07,18.9-52.91,22.45-124.36,3.72-75,15.82-218.53,19.2-227.8,1.06-2.88,34.78-21.67,75-41.76s73-38.4,73-40.71c0-8.81,40.32-115.6,43.65-115.6,7.07,0,3.16,24-9.71,59.71-27.13,75.2-20.77,68.22-97.62,107-37.56,19-69.45,37.54-70.89,41.27-4.28,11.15-11.13,96.56-15.41,192.17-3.81,85.11-8.54,115.72-23.62,153-2.23,5.53-.94,7.5,4.92,7.5,14.22,0,73.25-21.59,79.55-29.09,3.37-4,15.25-27.23,26.39-51.6l20.26-44.3-2.85-35.12L726,836.45l27.3-32.3c15-17.75,39.66-46.44,54.74-63.74s25.45-32.12,23-32.93c-5.14-1.71-93.32,31-106.63,39.57-5,3.21-15.3,21.32-23,40.35s-17.17,32.53-17.74,34.54c-1.85,7.38-13.71,6.71-13.71,6.71-8.13.44-13,2.3-10-23.83,7-37,26.63-87.25,37.09-94.81,5.9-4.26,56-24.17,111.43-44.24S911.4,626.35,914.05,622.78Zm-91.77-432.7c-15.58-12.19-17.79-26-6.27-39.14,7.5-8.52,115.13-97.18,141.37-116.44,7-5.16,12.41-7.47,15.22-7.31,3.61.21,3,4.5-3.76,12.08-4.51,5.06-40,35.18-78.9,66.94s-70.71,60.69-70.71,64.3c0,3.92,7.34,9,18.21,12.63,11.87,4,18.21,8.59,18.21,13.31,0,4-13,19.84-28.93,35.21-38.93,37.64-43.92,41.26-43.92,31.89,0-4,12-19.78,26.63-35l26.63-27.7ZM35.78,30.33c6.13-.78,32.49,18.56,88.85,64.46C194.18,151.44,200,157.22,200,170.07c0,11.14-2.56,15.25-12.85,20.56-7.07,3.65-12.86,7.87-12.86,9.38s11.57,14.77,25.71,29.48,25.72,28.83,25.72,31.39a4.81,4.81,0,0,1-4.93,4.65c-6.15,0-72.21-66.55-72.21-72.76,0-5,2.14-5.94,29.2-12.87,10.17-2.6,17.88-6.46,17.15-8.57s-8.34-9.23-16.87-15.81C124,113.81,37.27,41,35.18,35.57,33.93,32.34,34.06,30.55,35.78,30.33ZM190.31,282.12c-38.61-.77-70.35-6.1-82.1-13.8-7.64-5-20.64-33.08-51.38-110.91C17,56.6,11.39,38.69,19.47,38.69c4.35,0,13.19,20.32,59.59,136.94l33.19,83.43,34.21,5.06c18.82,2.77,42.41,5.19,52.42,5.37,13.19.23,18.22,2.1,18.22,6.75C217.1,281.31,211.5,282.55,190.31,282.12Zm387,715.3c-2,7.67-10.06,14.19-28.33,23-35.27,17.06-53.79,17.75-86.51,3.22-14.7-6.54-28.18-13.32-29.94-15.09-5.26-5.24-13.89-64.36-10-68.28,4.49-4.49,73.4-32.6,80.17-32.69C510.1,907.5,581,935.44,586,940.4,590,944.39,588.09,956.88,577.34,997.42ZM807.07,468.64c-4.33,3.27-36.15,16.95-70.71,30.4s-65.1,26.59-67.85,29.22-18.63,34.35-35.27,70.52L603,664.53,596.48,765.7C592.91,821.34,590,878.91,590,893.63c0,32.12-1,32.42-46.53,13.89-17.33-7-35-12.82-39.37-12.82s-22.92,5.91-41.34,13.13S427,921.92,424.31,923.1s-5.91.54-7.13-1.43-3.43-57.46-4.91-123.34l-2.7-119.77L377.19,605.8c-17.81-40-35.45-75.17-39.2-78.12s-17.54-9.27-30.64-14.07c-49.05-18-107.4-43.72-107.4-47.39,0-2.1,3.79-3.81,8.42-3.81,9.82,0,121.22,44,136.16,53.77,9.77,6.39,18,22.11,60,115.29l19.32,42.8,3.86,109.15c2.13,60,4.72,111.55,5.77,114.5,1.42,4,9.19,2.62,30.4-5.35,34.6-13,40.05-13.14,73.87-1.73,14.65,4.94,29.28,8,32.5,6.74,4.53-1.74,6.5-20.58,8.67-82.82,4.73-135.65,6.15-143.16,41.81-221.22,23-50.4,34.37-70.35,44-77.44,16.91-12.43,123.91-53.73,138.73-53.55C814.19,462.67,814.43,463.07,807.07,468.64ZM793.64,282.87c-4.44-7.17,11.87-12.2,57.42-17.72,43.54-5.27,44.57-5.65,49.17-18.15,25.55-69.37,83-205.9,87.21-207.28a5.41,5.41,0,0,1,1.07-.23,3.88,3.88,0,0,1,4.38,4.19c.05,3.14-18.73,53.63-41.74,112.21-29.8,75.87-44.58,108.3-51.37,112.75-5.25,3.43-29.37,8.89-53.62,12.13C792.49,288,796.68,287.77,793.64,282.87Z"/><polygon class="cls-1" points="16.66 192.07 16.67 192.07 16.67 192.07 16.66 192.07"/><path class="cls-1" d="M537.29,933.7c-15.54-5.66-25.34-8.49-34.83-8.45s-18.68,2.94-33,8.72c-33.57,13.54-34.54,14.69-31.33,37.36,3.4,23.95,8,29.15,37,41.66,28.51,12.29,27.74,12.31,58.51-1,26.82-11.62,29.6-14.93,34.81-41.28C572.54,950.11,568.23,945,537.29,933.7Z"/><polygon class="cls-1" points="978.56 539.97 978.57 539.97 978.58 539.97 978.56 539.97"/><path class="cls-1" d="M1076.25,1056.59h2.17v-2.23Z"/></g></g></svg>