<svg width="532" height="281" viewBox="0 0 532 281" fill="none" xmlns="http://www.w3.org/2000/svg">
<g clip-path="url(#clip0)">
<path d="M482.826 74H332.174C329.211 74 326.369 75.1781 324.273 77.275C322.177 79.372 321 82.2161 321 85.1817V167.919C321 170.884 322.177 173.728 324.273 175.825C326.369 177.922 329.211 179.1 332.174 179.1H346.377L340.725 203.491C340.623 203.921 340.664 204.373 340.842 204.778C341.019 205.183 341.323 205.52 341.708 205.737C342.093 205.954 342.538 206.04 342.977 205.983C343.415 205.925 343.822 205.726 344.138 205.417L371.137 179.086H482.826C485.789 179.086 488.632 177.908 490.727 175.811C492.823 173.714 494 170.87 494 167.904V85.1925C494.001 83.7232 493.713 82.268 493.153 80.9101C492.592 79.5522 491.769 78.3183 490.731 77.2789C489.693 76.2394 488.461 75.4148 487.104 74.8522C485.748 74.2896 484.294 74 482.826 74ZM378.721 106.65C378.721 106.223 378.805 105.799 378.969 105.404C379.134 105.009 379.374 104.65 379.677 104.349C379.98 104.047 380.34 103.808 380.736 103.646C381.132 103.484 381.555 103.402 381.983 103.404H421.616C422.476 103.404 423.301 103.746 423.91 104.355C424.518 104.964 424.86 105.789 424.86 106.65V111.383C424.86 112.244 424.518 113.069 423.91 113.678C423.301 114.287 422.476 114.629 421.616 114.629H381.997C381.57 114.631 381.146 114.549 380.75 114.387C380.355 114.225 379.995 113.986 379.692 113.685C379.389 113.383 379.148 113.024 378.984 112.629C378.82 112.234 378.735 111.811 378.735 111.383L378.721 106.65ZM389.174 123.491V128.209C389.177 128.637 389.094 129.061 388.932 129.457C388.77 129.853 388.532 130.213 388.23 130.517C387.929 130.82 387.57 131.061 387.176 131.225C386.781 131.389 386.358 131.474 385.93 131.474H362.713C362.284 131.476 361.858 131.393 361.461 131.23C361.065 131.067 360.704 130.827 360.401 130.523C360.097 130.219 359.857 129.859 359.694 129.461C359.531 129.064 359.448 128.639 359.45 128.209V123.491C359.45 123.064 359.535 122.64 359.699 122.245C359.863 121.85 360.104 121.491 360.407 121.19C360.71 120.888 361.07 120.649 361.466 120.487C361.861 120.325 362.285 120.243 362.713 120.245H385.93C386.358 120.242 386.783 120.323 387.179 120.485C387.576 120.647 387.936 120.885 388.24 121.187C388.544 121.489 388.785 121.848 388.95 122.243C389.115 122.639 389.199 123.063 389.199 123.491H389.174ZM336.496 106.65C336.501 105.791 336.844 104.968 337.452 104.36C338.059 103.752 338.881 103.409 339.74 103.404H369.399C370.26 103.404 371.085 103.746 371.693 104.355C372.302 104.964 372.643 105.789 372.643 106.65V111.383C372.643 112.244 372.302 113.069 371.693 113.678C371.085 114.287 370.26 114.629 369.399 114.629H339.758C338.9 114.624 338.077 114.281 337.47 113.673C336.862 113.065 336.519 112.242 336.514 111.383L336.496 106.65ZM336.496 123.491C336.501 122.632 336.844 121.809 337.452 121.201C338.059 120.593 338.881 120.25 339.74 120.245H350.735C351.162 120.243 351.586 120.325 351.982 120.487C352.377 120.649 352.737 120.888 353.04 121.19C353.343 121.491 353.584 121.85 353.748 122.245C353.912 122.64 353.997 123.064 353.997 123.491V128.209C353.999 128.639 353.916 129.064 353.753 129.461C353.59 129.859 353.35 130.219 353.047 130.523C352.743 130.827 352.383 131.067 351.986 131.23C351.589 131.393 351.164 131.476 350.735 131.474H339.74C338.878 131.469 338.053 131.123 337.445 130.511C336.837 129.9 336.496 129.072 336.496 128.209V123.491ZM391.924 146.414C391.924 147.275 391.583 148.101 390.974 148.709C390.366 149.318 389.541 149.66 388.68 149.66H339.758C338.9 149.655 338.077 149.312 337.47 148.704C336.862 148.096 336.519 147.273 336.514 146.414V141.685C336.514 140.822 336.856 139.995 337.463 139.383C338.071 138.772 338.896 138.426 339.758 138.421H388.662C389.09 138.421 389.513 138.505 389.908 138.67C390.303 138.834 390.661 139.075 390.963 139.378C391.264 139.681 391.503 140.041 391.665 140.437C391.827 140.833 391.909 141.257 391.906 141.685L391.924 146.414ZM395.05 128.545V123.812C395.047 123.383 395.13 122.958 395.293 122.56C395.456 122.163 395.696 121.803 396 121.499C396.303 121.195 396.664 120.955 397.061 120.792C397.458 120.629 397.883 120.546 398.312 120.548H446.084C446.511 120.548 446.935 120.633 447.33 120.797C447.724 120.961 448.083 121.202 448.384 121.505C448.686 121.809 448.924 122.169 449.086 122.565C449.248 122.961 449.33 123.385 449.328 123.812V128.545C449.323 129.404 448.98 130.227 448.373 130.835C447.765 131.443 446.943 131.786 446.084 131.791H398.312C397.45 131.791 396.623 131.45 396.012 130.841C395.4 130.233 395.054 129.407 395.05 128.545ZM481.294 146.414C481.294 147.275 480.952 148.101 480.344 148.709C479.735 149.318 478.91 149.66 478.05 149.66H400.77C399.91 149.66 399.085 149.318 398.476 148.709C397.868 148.101 397.526 147.275 397.526 146.414V141.685C397.524 141.257 397.606 140.833 397.768 140.437C397.93 140.041 398.168 139.681 398.47 139.378C398.771 139.075 399.13 138.834 399.525 138.67C399.919 138.505 400.343 138.421 400.77 138.421H478.032C478.459 138.421 478.882 138.505 479.277 138.67C479.672 138.834 480.03 139.075 480.332 139.378C480.633 139.681 480.872 140.041 481.034 140.437C481.196 140.833 481.278 141.257 481.276 141.685L481.294 146.414ZM481.294 128.22C481.296 128.648 481.214 129.072 481.052 129.468C480.89 129.864 480.651 130.224 480.35 130.527C480.048 130.831 479.69 131.071 479.295 131.236C478.9 131.4 478.477 131.485 478.05 131.485H458.257C457.829 131.485 457.406 131.4 457.011 131.236C456.616 131.071 456.258 130.831 455.956 130.527C455.655 130.224 455.416 129.864 455.254 129.468C455.092 129.072 455.01 128.648 455.012 128.22V123.491C455.012 122.63 455.354 121.805 455.963 121.196C456.571 120.587 457.396 120.245 458.257 120.245H478.032C478.892 120.245 479.717 120.587 480.326 121.196C480.934 121.805 481.276 122.63 481.276 123.491L481.294 128.22ZM481.294 111.383C481.294 112.244 480.952 113.069 480.344 113.678C479.735 114.287 478.91 114.629 478.05 114.629H433.673C432.811 114.629 431.984 114.288 431.373 113.679C430.762 113.071 430.416 112.245 430.411 111.383V106.65C430.416 105.788 430.762 104.962 431.373 104.354C431.984 103.746 432.811 103.404 433.673 103.404H478.032C478.892 103.404 479.717 103.746 480.326 104.355C480.934 104.964 481.276 105.789 481.276 106.65L481.294 111.383Z" fill="#222C3B"/>
<path fill-rule="evenodd" clip-rule="evenodd" d="M243.671 166.231C245.255 164.101 252.101 140.874 252.101 137.666C252.101 136.371 249.347 132.625 245.892 129.216C242.437 125.806 239.387 121.946 239.056 120.547C238.237 117.291 242.422 102.321 257.318 55.3134L269.293 17.4975C269.465 16.8007 269.628 16.0446 269.786 15.2341C269.905 14.5274 269.993 13.8603 270.053 13.2277C270.112 12.5951 270.142 11.8884 270.147 11.157C270.147 10.1686 270.112 9.26423 270.038 8.42904C269.969 7.14908 269.584 2.28124 266.282 0.482369C266 0.331255 265.706 0.203969 265.403 0.101838C260.433 -0.293519 257.585 0.378588 255.882 0.818422C251.998 1.80681 249.09 2.43444 248.597 2.56788C241.741 4.46559 233.671 8.74039 206.751 23.3735C186.638 34.3052 185.878 34.8488 184.382 39.3509C183.464 42.1184 181.712 44.5844 180.068 45.4196C178.02 46.4673 166.026 46.833 133.731 46.8479C85.0837 46.8479 86.4756 47.095 84.4815 38.8715C83.5487 35.0366 82.3048 34.2211 54.1412 19.0394C25.9775 3.85773 24.2944 3.14609 13.8207 1.36698C1.01719 -0.812425 1.3775 -1.04964 0.252143 10.3762C-0.493163 18.0263 -0.271053 18.9653 11.5008 56.2376C18.1148 77.1668 25.1335 100.117 27.1078 107.239L30.6912 120.187L27.7297 128.375C26.091 132.878 24.7683 137.894 24.7683 139.52C24.7683 142.292 31.8462 167.842 33.2282 170.081C33.5737 170.644 44.5411 174.879 57.5913 179.47C71.6682 184.442 82.3394 188.86 83.8201 190.343C85.9672 192.487 90.1922 204.126 92.8625 215.255C93.5782 218.245 93.8201 218.63 91.4904 219.159C89.8221 219.54 89.2396 219.97 87.675 219.184C86.1103 218.398 85.8932 219.461 83.0946 213.076C76.8755 198.897 77.9515 199.905 62.6604 193.891C54.9457 190.857 47.8036 188.534 46.7868 188.732C45.5085 188.979 50.8589 195.878 64.3484 211.366C75.0196 223.617 84.0916 234.514 84.4766 235.581C84.8616 236.649 84.7234 239.174 84.141 241.205C83.2278 244.398 83.7905 246.469 88.2673 256.412C91.1202 262.737 94.3581 268.841 95.4686 269.968C97.902 272.439 108.173 275.769 108.173 274.079C108.173 273.442 106.826 268.233 105.177 262.505C102.764 254.168 102.305 250.59 102.803 244.581C103.366 237.815 99.9207 188.242 98.4498 181.951C98.0106 180.068 94.8714 177.884 86.7323 173.782C80.6168 170.698 74.2644 166.715 72.6109 164.926C66.9891 158.828 50.8934 131.514 51.3031 128.81C51.6338 126.779 53.1047 128.445 58.5242 136.945C77.9564 167.447 74.5211 163.602 88.9632 171.044L101.89 177.686L103.864 198.25C104.96 209.562 106.081 226.785 106.332 236.53C106.683 249.508 107.448 256.659 109.175 263.271C110.478 268.213 111.757 272.513 112.013 272.775C112.27 273.037 117.033 274.974 122.591 277.079C128.149 279.184 133.183 280.954 133.78 280.998C135.552 281.126 154.279 273.975 155.833 272.572C158.795 269.884 160.873 258.453 161.816 239.377C162.803 219.357 166.036 181.062 166.939 178.591C167.215 177.82 176.208 172.809 186.914 167.447C197.62 162.085 206.386 157.197 206.386 156.574C206.386 154.222 217.136 125.717 218.02 125.717C219.905 125.717 218.864 132.141 215.433 141.654C208.202 161.729 209.895 159.866 189.407 170.229C179.397 175.289 170.893 180.246 170.512 181.24C169.367 184.205 167.551 207.017 166.401 232.537C165.384 255.27 164.126 263.424 160.108 273.378C159.511 274.86 159.856 275.354 161.421 275.354C165.207 275.354 180.942 269.597 182.645 267.595C183.543 266.523 186.707 260.326 189.678 253.822L195.108 241.996L194.347 232.606L193.587 223.217L200.863 214.598C204.866 209.854 211.435 202.198 215.458 197.578C219.481 192.957 222.24 189.008 221.593 188.791C220.221 188.336 196.717 197.069 193.168 199.352C191.84 200.212 189.086 205.045 187.038 210.125C184.989 215.206 182.462 218.808 182.309 219.342C181.815 221.319 178.657 221.131 178.657 221.131C176.49 221.25 175.201 221.749 175.976 214.771C177.832 204.887 183.079 191.484 185.848 189.468C187.418 188.331 200.784 183.014 215.552 177.657C230.32 172.3 242.965 167.18 243.671 166.231ZM219.209 50.7322C215.053 47.4804 214.461 43.8135 217.536 40.2899C219.51 38.0116 248.227 14.3495 255.221 9.20987C257.096 7.83107 258.528 7.23309 259.278 7.23309C260.265 7.29239 260.077 8.43399 258.291 10.4602C257.091 11.8093 247.624 19.8499 237.259 28.3254C226.894 36.8008 218.409 44.5251 218.409 45.4888C218.409 46.5365 220.384 47.8955 223.261 48.8592C226.425 49.9168 228.118 51.1572 228.118 52.4125C228.118 53.48 224.663 57.7103 220.404 61.8022C210.038 71.8492 208.696 72.8179 208.696 70.3123C208.696 69.2399 211.889 65.0343 215.794 60.967L222.896 53.5541L219.209 50.7322ZM9.53638 8.09299C11.1701 7.88543 18.1987 13.035 33.2282 25.3009C51.7621 40.4233 53.307 41.9603 53.307 45.3949C53.307 48.3601 52.621 49.4622 49.852 50.8805C47.9665 51.8689 46.4265 52.9808 46.4265 53.3861C46.4265 53.7913 49.5361 57.3248 53.307 61.2784C57.078 65.2319 60.1579 68.973 60.1579 69.6797C60.1476 70.0184 60.0036 70.3391 59.7575 70.5716C59.5114 70.8041 59.1832 70.9295 58.845 70.9201C57.2063 70.9201 39.5954 53.1587 39.5954 51.5032C39.5954 50.1689 40.1679 49.9168 47.3791 48.0438C50.0938 47.347 52.1471 46.3191 51.9497 45.7557C51.7523 45.1923 49.7286 43.2847 47.4532 41.5352C33.0406 30.3763 9.93618 10.9445 9.37843 9.49156C9.04773 8.63166 9.08228 8.15229 9.53638 8.09299ZM50.7355 75.3037C40.4394 75.1011 31.9795 73.6778 28.8452 71.6219C26.8117 70.2876 23.3418 62.7956 15.1484 42.0196C4.53642 15.1056 3.03593 10.3268 5.19288 10.3268C6.35279 10.3268 8.70717 15.7629 21.0763 46.8973L29.9262 69.1658L39.0426 70.5149C44.0623 71.2562 50.3505 71.9036 53.0208 71.9481C56.535 72.0123 57.8726 72.5065 57.8726 73.7519C57.8726 75.0862 56.382 75.4124 50.7355 75.2987V75.3037ZM153.894 266.231C153.356 268.277 151.214 270.017 146.342 272.379C136.964 276.931 132.028 277.114 123.282 273.234C119.363 271.49 115.77 269.681 115.296 269.211C113.899 267.808 111.594 252.033 112.64 250.985C113.835 249.79 132.206 242.283 134.012 242.258C135.987 242.228 154.881 249.671 156.223 251.01C157.28 252.068 156.776 255.404 153.908 266.227L153.894 266.231ZM215.152 125.084C213.997 125.959 205.517 129.611 196.302 133.199C187.087 136.787 178.948 140.3 178.212 140.997C177.477 141.694 173.247 150.169 168.805 159.821L160.74 177.37L159.007 204.378C158.055 219.228 157.27 234.593 157.27 238.522C157.27 247.096 156.998 247.175 144.866 242.233C140.246 240.345 135.523 238.808 134.373 238.808C133.223 238.808 128.262 240.385 123.351 242.312C118.44 244.24 113.83 246.073 113.109 246.389C112.389 246.706 111.535 246.533 111.209 246.009C110.883 245.485 110.296 230.689 109.901 213.086L109.18 181.116L100.548 161.694C95.7993 151.015 91.0955 141.63 90.0985 140.844C89.1014 140.058 85.4243 138.373 81.9297 137.088C68.8548 132.294 53.3021 125.42 53.3021 124.437C53.3021 123.878 54.2893 123.424 55.5429 123.424C58.1589 123.424 87.8576 135.166 91.8408 137.755C94.4469 139.46 96.6285 143.656 107.843 168.529L112.991 179.955L114.017 209.102C114.585 225.129 115.276 238.883 115.552 239.668C115.932 240.731 118.02 240.365 123.657 238.24C132.882 234.781 134.338 234.731 143.351 237.776C147.26 239.095 151.154 239.906 152.013 239.574C153.222 239.115 153.751 234.084 154.328 217.474C155.587 181.264 155.967 179.258 165.473 158.423C171.608 144.971 174.634 139.643 177.21 137.75C181.722 134.434 210.246 123.419 214.194 123.458C217.052 123.493 217.111 123.597 215.152 125.084ZM211.573 75.5014C210.389 73.5839 214.737 72.2446 226.874 70.7719C238.483 69.3634 238.755 69.2646 239.984 65.9238C246.79 47.4112 262.091 10.9692 263.236 10.5986C263.33 10.5698 263.426 10.55 263.523 10.5393C263.676 10.5195 263.832 10.5344 263.979 10.5828C264.126 10.6313 264.26 10.712 264.372 10.8191C264.483 10.9262 264.57 11.0569 264.624 11.2018C264.679 11.3466 264.701 11.5019 264.688 11.6561C264.688 12.4963 259.697 25.9878 253.562 41.6094C245.616 61.8714 241.677 70.5149 239.865 71.701C238.469 72.6202 232.037 74.0781 225.552 74.938C211.253 76.8554 212.383 76.811 211.573 75.5014Z" fill="#284DE2"/>
</g>
<defs>
<clipPath id="clip0">
<rect width="532" height="281" fill="white"/>
</clipPath>
</defs>
</svg>
