<svg xmlns="http://www.w3.org/2000/svg" xmlns:xlink="http://www.w3.org/1999/xlink" viewBox="0 0 956.38 783.57"><defs><style>.cls-1,.cls-17{fill:#284de2;}.cls-2{opacity:0.4;}.cls-3{opacity:0.5;}.cls-4{fill:#fbfbfb;}.cls-5{fill:#2dab66;}.cls-6{fill:#141e2e;}.cls-25,.cls-7{fill:#fff;}.cls-8{fill:#3f2717;}.cls-10,.cls-11,.cls-12,.cls-13,.cls-14,.cls-15,.cls-16,.cls-17,.cls-18,.cls-19,.cls-23,.cls-24,.cls-25,.cls-26,.cls-27,.cls-28,.cls-29,.cls-30,.cls-31,.cls-8,.cls-9{fill-rule:evenodd;}.cls-9{fill:#e3ad7c;}.cls-10{fill:#d67f54;}.cls-11{fill:#cf806b;}.cls-12{fill:#4a2d1b;}.cls-13{fill:#cf7a64;}.cls-14{fill:#f1d3a3;}.cls-15{fill:#eaeaea;}.cls-16{fill:#999a99;}.cls-18{fill:#52301c;}.cls-19{fill:#dfbb90;}.cls-20{fill:#273547;}.cls-21{fill:#e5332a;}.cls-22{fill:#212c3b;}.cls-23{fill:#232221;}.cls-24{fill:#9e6550;}.cls-26{fill:#895748;}.cls-27{fill:#252524;}.cls-28{fill:#171412;}.cls-29{fill:#623a1b;}.cls-30{fill:#aeafaf;}.cls-31{fill:#15254d;}.cls-32{fill:#2e3b4f;}</style><image id="image" width="96" height="96" xlink:href="../../icons8-microfone-96.png"/><image id="image-2" width="96" height="96" xlink:href="../../icons8-chamada-de-v%C3%ADdeo-96.png"/><image id="image-3" width="100" height="100" xlink:href="../../icons8-sem-telefones-100%20(1).png"/></defs><g id="Camada_2" data-name="Camada 2"><g id="Camada_1-2" data-name="Camada 1"><path class="cls-1" d="M276.91,547.07H261.69V464.26a35.35,35.35,0,1,0-70.69,0v82.81H175.78V464.26a50.57,50.57,0,1,1,101.13,0Z"/><g class="cls-2"><path d="M276.91,547.07H261.69V464.26a35.35,35.35,0,1,0-70.69,0v82.81H175.78V464.26a50.57,50.57,0,1,1,101.13,0Z"/></g><rect class="cls-1" x="158.2" y="510.23" width="136.28" height="87.44" rx="5.81"/><g class="cls-3"><path d="M237.74,542.56a11.4,11.4,0,1,0-14.5,10.91v17h6.21v-17A11.37,11.37,0,0,0,237.74,542.56Z"/></g><path class="cls-4" d="M165.47,589.38c-.31,0-.56-14.59-.56-32.57s.25-32.57.56-32.57.57,14.58.57,32.57S165.78,589.38,165.47,589.38Z"/><path class="cls-4" d="M217.42,557.16c0,.06-.53-.18-1.33-.76a13.83,13.83,0,0,1-2.94-3,16,16,0,0,1,5.67-23.95,13.66,13.66,0,0,1,4-1.36c1-.16,1.53-.15,1.53-.08s-2.16.42-5.11,2.14a15.8,15.8,0,0,0-5.4,22.8C215.68,555.82,217.56,557,217.42,557.16Z"/><rect class="cls-5" x="156.14" y="575.27" width="9.54" height="38.74"/><rect class="cls-5" x="156.14" y="575.27" width="9.54" height="38.74" transform="translate(755.55 433.73) rotate(90)"/><rect class="cls-6" x="353.09" y="416.13" width="603.28" height="366.04" rx="2.55"/><circle class="cls-7" cx="936.27" cy="430.31" r="7.14"/><circle class="cls-7" cx="918.35" cy="430.31" r="7.14"/><circle class="cls-7" cx="900.42" cy="430.31" r="7.14"/><path class="cls-8" d="M560.85,595.38c19.8-55.41,11.81-49,17.18-70.75a94.31,94.31,0,0,1,6.88-18.88c10.36-28.56,32.38-47.58,76.53-48.67,44.16,1.09,66.18,20.11,76.53,48.67a93.7,93.7,0,0,1,6.88,18.88c5.37,21.8-2.62,15.34,17.18,70.75C806.09,718.71,516.8,718.71,560.85,595.38Z"/><path class="cls-9" d="M690.29,659.11l-.87-28.62H637.58l-1.91,28.59c-.84,12.63-28,16.92-38.63,23.37-31.55,19.16-59,51.92-57.9,99.79H788c1-45.32-23.51-77.1-52.91-96.62C720.81,676.13,690.59,669.25,690.29,659.11Z"/><path class="cls-10" d="M636,654.1c16,14.67,38,15.08,54.16.91l-.74-24.52H637.58Z"/><path class="cls-9" d="M662.27,652.61c-75.52,2.44-113.65-197,0-191.72l1.31,0,1.31,0c113.66-5.27,75.53,194.16,0,191.72-.44,0-.87,0-1.31,0S662.71,652.63,662.27,652.61Z"/><path class="cls-9" d="M594.92,569.16c-.3-3.32-13.91-7.25-18.45,3.63s3.63,26.31,19,27.52,10.89-1.51,10.89-1.51Z"/><path class="cls-9" d="M732.25,569.16c.3-3.32,13.91-7.25,18.45,3.63s-3.63,26.31-19.06,27.52-10.88-1.51-10.88-1.51Z"/><path class="cls-11" d="M632,590.86c4.18,3.21,4.37,7.9.41,10.49s-10.55,2.09-14.73-1.12-4.36-7.91-.41-10.5S627.78,587.65,632,590.86Z"/><path class="cls-11" d="M695.2,590.86c-4.18,3.21-4.36,7.9-.4,10.49s10.55,2.09,14.73-1.12,4.36-7.91.4-10.5S699.38,587.65,695.2,590.86Z"/><path class="cls-10" d="M582.82,580.72a.89.89,0,0,1-1.77,0c0-3.14.62-5.21,1.62-6.44a3.82,3.82,0,0,1,3-1.47,6.62,6.62,0,0,1,3.32,1,17.89,17.89,0,0,1,6.83,8,27.87,27.87,0,0,1,1.88,5.61,3.07,3.07,0,0,1,0,1v0a1,1,0,0,1-1.28.86,1.84,1.84,0,0,1-.9-.57,4.92,4.92,0,0,0-3.79-1.59,2.16,2.16,0,0,0-1.05.37,1.36,1.36,0,0,0-.53.74c-.22.75,0,1.86,1,3.31a.89.89,0,0,1-.24,1.23.88.88,0,0,1-1.23-.24c-1.31-2-1.59-3.59-1.22-4.81a3.12,3.12,0,0,1,1.19-1.67,3.92,3.92,0,0,1,1.91-.69,6.3,6.3,0,0,1,4.14,1.2,32.77,32.77,0,0,0-1.52-4.12,16,16,0,0,0-6.07-7.17,4.8,4.8,0,0,0-2.42-.74,2.11,2.11,0,0,0-1.65.82C583.29,576.32,582.82,578,582.82,580.72Z"/><path class="cls-12" d="M642.15,549.62l-.73-.34a16.65,16.65,0,0,0-8.26-1.22,16.9,16.9,0,0,0-7.72,2.75c-1.16.85-5.72,5-4.43,6.58.53.16,5.07-2.47,6.4-3a16.3,16.3,0,0,1,6-.91,14.62,14.62,0,0,1,5.46,1.26s.39.19.46.22c3.81,2.1,3.46,3.45,6.06,1.43C649.35,554,645.23,551.43,642.15,549.62Z"/><path class="cls-12" d="M685,549.62l.72-.34a17.08,17.08,0,0,1,16,1.53c1.17.85,5.73,5,4.44,6.58-.53.16-5.07-2.47-6.41-3a16.22,16.22,0,0,0-6-.91,14.62,14.62,0,0,0-5.46,1.26c-.05,0-.39.19-.46.22-3.81,2.1-3.47,3.45-6.06,1.43C677.82,554,681.93,551.43,685,549.62Z"/><path class="cls-10" d="M662.39,602.75a.89.89,0,0,1,0-1.78,36.81,36.81,0,0,0,6.62-.41c1.63-.32,2.83-.85,2.83-1.8,0-3-2.59-21.29-2.6-21.34a.88.88,0,0,1,.76-1,.89.89,0,0,1,1,.75c0,.06,2.62,18.53,2.62,21.59,0,2-1.81,3.06-4.27,3.54A38.35,38.35,0,0,1,662.39,602.75Z"/><path class="cls-10" d="M745.74,580.72a.89.89,0,0,1-1.78,0c0-2.7-.47-4.4-1.22-5.32a2.11,2.11,0,0,0-1.65-.82,4.86,4.86,0,0,0-2.42.74,16,16,0,0,0-6.07,7.17,32.56,32.56,0,0,0-1.51,4.12,6.26,6.26,0,0,1,4.13-1.2,3.89,3.89,0,0,1,1.91.69,3.14,3.14,0,0,1,1.2,1.67c.36,1.22.08,2.86-1.23,4.81a.87.87,0,0,1-1.22.24.89.89,0,0,1-.25-1.23c1-1.45,1.22-2.56,1-3.31a1.36,1.36,0,0,0-.53-.74,2.16,2.16,0,0,0-1.05-.37,4.94,4.94,0,0,0-3.79,1.59,1.84,1.84,0,0,1-.9.57,1,1,0,0,1-1.28-.86v0a3.1,3.1,0,0,1,0-1,27.25,27.25,0,0,1,1.88-5.61,17.94,17.94,0,0,1,6.82-8,6.63,6.63,0,0,1,3.33-1,3.85,3.85,0,0,1,3,1.47C745.12,575.51,745.74,577.58,745.74,580.72Z"/><path class="cls-10" d="M658.39,626.44a.89.89,0,0,1,.9-1.53,8.64,8.64,0,0,0,4.33,1.08,8.33,8.33,0,0,0,4.25-1.07.89.89,0,0,1,1.22.3.88.88,0,0,1-.3,1.21,10.08,10.08,0,0,1-5.17,1.33A10.5,10.5,0,0,1,658.39,626.44Z"/><path class="cls-13" d="M594.7,602.27a3.29,3.29,0,1,0-3.16-3.29A3.23,3.23,0,0,0,594.7,602.27Z"/><path class="cls-13" d="M732.46,602.27A3.29,3.29,0,1,0,729.3,599,3.23,3.23,0,0,0,732.46,602.27Z"/><path class="cls-8" d="M639.74,567.17a6.83,6.83,0,1,1-9.55,1.54A6.82,6.82,0,0,1,639.74,567.17Z"/><path class="cls-8" d="M688.36,567.17a6.83,6.83,0,1,0,9.56,1.54A6.82,6.82,0,0,0,688.36,567.17Z"/><path class="cls-8" d="M662.27,460c.43,0,.86,0,1.28,0h.06l1.28,0a75.44,75.44,0,0,1,29.88,4.18,57.12,57.12,0,0,1,21.54,14.12c10.39,10.84,16.23,25.16,19,39.74,3,16,2.62,33-.12,49.05l-.08.44-.38.2c-.46.24-1.55.93-1.61,1.51v.13l-2.38,6.13-.68-2.71a114.14,114.14,0,0,1-3.85-28.24c0-11.66-1.7-24.5-7.63-34.74a33.87,33.87,0,0,0-17.69-15.3,38,38,0,0,0-20.42-1.41c-5.44,1.09-11.48,3.49-15.58,7.32l-.61.57-.6-.57c-4.11-3.83-10.14-6.23-15.58-7.32a38,38,0,0,0-20.42,1.41A33.8,33.8,0,0,0,610,509.81c-5.93,10.24-7.63,23.08-7.63,34.74A117.3,117.3,0,0,1,597.94,575l-.7,2.64-3.19-8.24,0-.13c0-.58-1.15-1.27-1.6-1.51l-.39-.2-.07-.44c-2.74-16-3.17-33.05-.12-49.05,2.78-14.58,8.62-28.9,19-39.74a57.12,57.12,0,0,1,21.54-14.12A75.42,75.42,0,0,1,662.27,460Z"/><path class="cls-8" d="M664.28,499.78c14.69-13.71,62.82-17.49,62.82,44.77a112.85,112.85,0,0,0,3.82,28l1.33-3.42c.07-.77.85-1.57,2.07-2.22,9-52.38-8.23-108.89-69.43-106.05l-1.31,0-1.31,0c-61.19-2.84-78.38,53.67-69.43,106.05,1.22.65,2,1.45,2.08,2.22l2.16,5.58a115.59,115.59,0,0,0,4.39-30.19C601.47,482.29,649.6,486.07,664.28,499.78Z"/><path class="cls-14" d="M663.9,518c-24.81-15.87-44.24-12.25-44.12,22.72.15,44.57-26.21,53.92-13.14,102.3,2.67,9.84,9.31,26.24,23.07,28.43,4.43.7-44.22.15-42.41-53.18.82-24.22,14.17-44.54,14.17-73.68,0-62.26,48.13-58.48,62.81-44.77V518.1A2,2,0,0,1,663.9,518Z"/><path class="cls-14" d="M664.67,518c24.81-15.87,44.24-12.25,44.12,22.72C708.63,585.25,735,594.6,721.92,643c-2.66,9.84-9.3,26.24-23.07,28.43-4.42.7,44.22.15,42.42-53.18-.82-24.22-14.17-44.54-14.17-73.68,0-62.26-48.13-58.48-62.82-44.77V518.1A1.82,1.82,0,0,0,664.67,518Z"/><path class="cls-15" d="M709,681.26a84.44,84.44,0,0,1-87.75,2,70.9,70.9,0,0,1-9.65-6.94c-2,.75-4.07,1.48-6,2.21a56.13,56.13,0,0,0-8.61,3.92c-31.55,19.16-59,51.92-57.9,99.79H788c1-45.32-23.51-77.1-52.91-96.62-4.24-2.82-9.88-5.4-15.73-7.91l-3.65-1.55A69.47,69.47,0,0,1,709,681.26Z"/><path class="cls-16" d="M720.39,684.45a.89.89,0,0,1,1.33,1.17,38.84,38.84,0,0,1-3,3c-12.32,11.11-33.66,16.67-55,16.69s-42.74-5.48-55.19-16.51a39.75,39.75,0,0,1-3.06-3,.89.89,0,0,1,1.32-1.19,37.8,37.8,0,0,0,2.91,2.89c12.11,10.73,33.07,16.09,54,16.06s41.85-5.43,53.84-16.24A36.69,36.69,0,0,0,720.39,684.45Z"/><path class="cls-17" d="M578.32,782.24c.54-28.25,2.32-64.66,5.29-90.55A143.09,143.09,0,0,1,597,682.45a56.13,56.13,0,0,1,8.61-3.92l1.55-.59.37-.11,0,.1c13.66,31.14,23.7,58.22,55.25,74.26l.45.23.46-.23c31.49-16,42.18-43.4,55.39-74.58l.22.1c5.85,2.51,11.49,5.09,15.73,7.91q4.3,2.85,8.43,6c3,26.43,4.77,62.34,5.31,90.57Z"/><path class="cls-16" d="M578.18,745.48a1.33,1.33,0,0,1,2.66,0l-.3,36.75a1.33,1.33,0,0,1-2.66,0Z"/><path class="cls-16" d="M746.63,745.48a1.33,1.33,0,0,1,2.66,0l-.3,36.75a1.33,1.33,0,1,1-2.66,0Z"/><path class="cls-18" d="M676.88,615.84a.88.88,0,0,1,.9,1.52,28.61,28.61,0,0,1-28.39,0,.88.88,0,0,1,.9-1.52,26.87,26.87,0,0,0,26.59,0Z"/><path class="cls-19" d="M619.5,668.3a.88.88,0,0,1-.58,1.67c-5.8-2-15.58-8.56-21-20.83-3.59-8.13-5.27-18.79-2.6-32.32a284.85,284.85,0,0,1,7.78-30.31c3.64-12,6.49-21.43,6.77-38.6.23-14.45,1.67-25.61,5.36-33.66,3.77-8.2,9.84-13.18,19.31-15.12a30.91,30.91,0,0,1,29.52,9.22.89.89,0,0,1-1.36,1.14,29,29,0,0,0-27.81-8.63c-8.85,1.82-14.53,6.47-18,14.13s-5,18.73-5.2,32.94c-.29,17.45-3.16,26.92-6.84,39.09a284.19,284.19,0,0,0-7.74,30.14c-2.59,13.12-1,23.43,2.49,31.27C604.72,660.16,614,666.38,619.5,668.3Z"/><path class="cls-19" d="M709.71,670a.88.88,0,1,1-.58-1.67c5.49-1.92,14.78-8.14,20-19.87,3.47-7.84,5.08-18.15,2.49-31.27A284.19,284.19,0,0,0,723.83,587c-3.68-12.17-6.55-21.64-6.84-39.09-.23-14.21-1.62-25.14-5.2-32.94s-9.2-12.31-18-14.13a29,29,0,0,0-27.81,8.63.89.89,0,0,1-1.36-1.14,30.91,30.91,0,0,1,29.52-9.22c9.47,1.94,15.54,6.92,19.31,15.12,3.7,8,5.12,19.21,5.36,33.66.28,17.17,3.12,26.55,6.77,38.6a284.85,284.85,0,0,1,7.78,30.31c2.67,13.53,1,24.19-2.6,32.32C725.29,661.41,715.5,668,709.71,670Z"/><rect class="cls-20" x="855.72" y="725.72" width="36.45" height="36.45" rx="2.45"/><use transform="translate(862.06 732.06) scale(0.25)" xlink:href="#image"/><rect class="cls-20" x="811.26" y="725.72" width="36.45" height="36.45" rx="2.45"/><use transform="translate(821.55 735.01) scale(0.19)" xlink:href="#image-2"/><rect class="cls-21" x="900.17" y="725.72" width="36.45" height="36.45" rx="2.45"/><use transform="translate(909.38 734.65) scale(0.19)" xlink:href="#image-3"/><rect class="cls-22" width="603.28" height="366.04" rx="2.55"/><circle class="cls-7" cx="586.27" cy="16.61" r="7.14"/><circle class="cls-7" cx="568.35" cy="16.61" r="7.14"/><circle class="cls-7" cx="550.43" cy="16.61" r="7.14"/><path class="cls-23" d="M275.13,182.28a4.18,4.18,0,1,1,8.2,1.6c0,.11-7.47,39.32-38.83,55.5a4.17,4.17,0,0,1-3.82-7.41C268.41,217.66,275.11,182.38,275.13,182.28Z"/><path class="cls-23" d="M283.54,194.23a4.18,4.18,0,1,1,8.2,1.6c0,.11-7.47,39.32-38.83,55.5a4.17,4.17,0,1,1-3.82-7.42C276.82,229.61,283.52,194.33,283.54,194.23Z"/><path class="cls-23" d="M291,205.51a4.16,4.16,0,1,1,8.29.81c0,.11-3.34,36.89-36.44,58.6a4.18,4.18,0,1,1-4.58-7C288,238.42,291,205.6,291,205.51Z"/><path class="cls-23" d="M379.49,183.88a4.18,4.18,0,1,1,8.2-1.6c0,.1,6.72,35.38,34.45,49.69a4.17,4.17,0,1,1-3.82,7.41C387,223.2,379.51,184,379.49,183.88Z"/><path class="cls-23" d="M371.08,195.83a4.18,4.18,0,1,1,8.2-1.6c0,.1,6.73,35.38,34.45,49.68a4.17,4.17,0,0,1-3.82,7.42C378.55,235.15,371.1,195.94,371.08,195.83Z"/><path class="cls-23" d="M363.55,206.32a4.17,4.17,0,0,1,8.3-.81c0,.09,3,32.91,32.72,52.42a4.18,4.18,0,1,1-4.57,7C366.89,243.21,363.56,206.43,363.55,206.32Z"/><path class="cls-24" d="M331.41,365.87H211.8c-1.39-61.17,45.67-96.68,86.08-109.93,3.28-17.06,2.44-39.2,2.44-39.2H362.5s-.84,22.14,2.44,39.2c40.41,13.25,87.47,48.76,86.08,109.93Z"/><path class="cls-17" d="M455.1,365.87c1.42-60.41-46-95.78-87.45-109.42-8.3,18.4-63.94,18.32-72.14-.11-41.51,13.56-89.21,49-87.79,109.53Z"/><path class="cls-25" d="M438,365.84a85.25,85.25,0,0,0-19-56.53c-14.93-18.68-36.47-31.05-56.4-37.61l.79-2.38C383.7,276,405.67,288.64,421,307.75a87.74,87.74,0,0,1,19.52,58.14l-2.5-.05ZM300.5,271.6c-20,6.52-41.59,18.9-56.59,37.61a85.26,85.26,0,0,0-19.06,56.63l-2.49.05A87.74,87.74,0,0,1,242,307.64c15.34-19.13,37.41-31.77,57.78-38.42Z"/><path class="cls-25" d="M448.53,365.91a99.28,99.28,0,0,0-22.89-60.54c-16.3-19.88-38.93-33.15-59.94-40.32l.81-2.38c21.38,7.31,44.43,20.84,61.06,41.11a101.7,101.7,0,0,1,23.46,62l-2.5.09Zm-151.09-101c-21.06,7.13-43.79,20.4-60.17,40.31a99.29,99.29,0,0,0-23,60.66l-2.5-.09a101.78,101.78,0,0,1,23.55-62.15c16.71-20.31,39.86-33.84,61.29-41.1Z"/><path class="cls-24" d="M265.57,162c-.29-3.19-13.38-7-17.73,3.49s3.48,25.29,18.31,26.46,10.46-1.46,10.46-1.46Z"/><path class="cls-24" d="M397.57,162c.29-3.19,13.37-7,17.73,3.49S411.81,190.8,397,192s-10.47-1.46-10.47-1.46Z"/><path class="cls-26" d="M362.5,216.74s-.17,4.39-.06,10.77c-11.81,29.66-48.48,33-62.08,1.23.15-7,0-12,0-12Z"/><path class="cls-24" d="M331.41,232.51c-77.13,1.85-116.08-188.36,0-183.48C447.49,44.15,408.54,234.36,331.41,232.51Z"/><path class="cls-27" d="M261.93,158.51c-5.41-22.87-8-50.38-1.39-70.27,8.17-24.45,40.17-46.13,71.47-46.39,30.06-.24,59.43,20,68.87,42.66,8.36,20.07,5.77,49.66,0,74-8.45-12.85-12-35.74-11.28-49.59,1.12-21.06-28-32.1-58.2-33-30.16.94-59.32,12-58.19,33C274,122.77,270.38,145.66,261.93,158.51Z"/><path class="cls-28" d="M326.68,290.44a.84.84,0,0,1,.84-.83.83.83,0,0,1,.83.83v30.27a.84.84,0,0,1-.83.84.85.85,0,0,1-.84-.84Z"/><path class="cls-25" d="M333.8,299.5a2.91,2.91,0,1,0-3-2.91A3,3,0,0,0,333.8,299.5Z"/><path class="cls-25" d="M333.8,316.25a2.91,2.91,0,1,0-3-2.9A3,3,0,0,0,333.8,316.25Z"/><path class="cls-23" d="M308.52,121.94l-.78-.31a20.41,20.41,0,0,0-17.07,1.43c-1.25.81-6.12,4.75-4.74,6.2.57.16,5.42-2.32,6.84-2.78a19.24,19.24,0,0,1,6.37-.86,17.17,17.17,0,0,1,5.83,1.19s.41.17.49.21c4.07,2,3.7,3.24,6.47,1.34C316.21,126.09,311.81,123.66,308.52,121.94Z"/><path class="cls-23" d="M354.3,121.94l.78-.31a20.41,20.41,0,0,1,17.07,1.43c1.25.81,6.12,4.75,4.74,6.2-.57.16-5.42-2.32-6.84-2.78a19.24,19.24,0,0,0-6.37-.86,17.17,17.17,0,0,0-5.83,1.19c-.05,0-.41.17-.49.21-4.07,2-3.7,3.24-6.47,1.34C346.62,126.09,351,123.66,354.3,121.94Z"/><path class="cls-25" d="M311.4,181.92c7.11-.09,14.19-.13,21.28-.13s14.16,0,21.27.13c0,11.15-11,15.14-21.24,15.14h-.07C322.4,197.06,311.4,193.07,311.4,181.92Z"/><path class="cls-29" d="M327.78,203.7a.83.83,0,0,1-.29-1.14.84.84,0,0,1,1.14-.3,8.13,8.13,0,0,0,4.08,1,7.82,7.82,0,0,0,4-1,.84.84,0,1,1,.87,1.43,9.59,9.59,0,0,1-4.87,1.25A9.93,9.93,0,0,1,327.78,203.7Z"/><path class="cls-26" d="M330.78,166.61a.83.83,0,0,1-.83-.83.84.84,0,0,1,.83-.84,41.24,41.24,0,0,0,6.26-.33c1.52-.26,2.64-.67,2.64-1.37,0-2.4-2.44-17.36-2.44-17.4a.83.83,0,1,1,1.64-.26s2.47,15.15,2.47,17.66c0,1.76-1.71,2.62-4,3A41.59,41.59,0,0,1,330.78,166.61Z"/><path class="cls-26" d="M410.56,173.77a.84.84,0,1,1-1.68,0c0-2.54-.43-4.13-1.14-5a2,2,0,0,0-1.56-.78,4.63,4.63,0,0,0-2.27.7,15,15,0,0,0-5.72,6.75,31.49,31.49,0,0,0-1.43,3.88,6,6,0,0,1,3.9-1.13,3.66,3.66,0,0,1,1.8.66,3,3,0,0,1,1.12,1.57c.34,1.15.08,2.69-1.15,4.53A.84.84,0,0,1,401,184c.92-1.37,1.15-2.42.94-3.12a1.25,1.25,0,0,0-.5-.7,2,2,0,0,0-1-.35,4.61,4.61,0,0,0-3.56,1.5,1.84,1.84,0,0,1-.85.54.92.92,0,0,1-1.21-.81V181a2.92,2.92,0,0,1,0-1,26.23,26.23,0,0,1,1.78-5.28,16.81,16.81,0,0,1,6.42-7.54,6.18,6.18,0,0,1,3.14-.91,3.59,3.59,0,0,1,2.81,1.38C410,168.87,410.56,170.82,410.56,173.77Z"/><path class="cls-26" d="M253.94,173.77a.84.84,0,0,1-1.68,0c0-3,.59-4.9,1.53-6.06a3.59,3.59,0,0,1,2.81-1.38,6.18,6.18,0,0,1,3.14.91,16.81,16.81,0,0,1,6.42,7.54,26.23,26.23,0,0,1,1.78,5.28,2.92,2.92,0,0,1,0,1v.05a.92.92,0,0,1-1.21.81,1.84,1.84,0,0,1-.85-.54,4.61,4.61,0,0,0-3.56-1.5,2,2,0,0,0-1,.35,1.25,1.25,0,0,0-.5.7c-.21.7,0,1.75.94,3.12a.82.82,0,0,1-.23,1.15.84.84,0,0,1-1.16-.22c-1.23-1.84-1.49-3.38-1.15-4.53a3,3,0,0,1,1.12-1.57,3.7,3.7,0,0,1,1.81-.66,5.94,5.94,0,0,1,3.89,1.13,33,33,0,0,0-1.42-3.88,15.14,15.14,0,0,0-5.72-6.75,4.69,4.69,0,0,0-2.28-.7,2,2,0,0,0-1.56.78C254.38,169.64,253.94,171.23,253.94,173.77Z"/><path class="cls-23" d="M308.51,141.55a6.43,6.43,0,1,1-9,1.44A6.41,6.41,0,0,1,308.51,141.55Z"/><path class="cls-23" d="M354.31,141.55a6.43,6.43,0,1,0,9,1.44A6.41,6.41,0,0,0,354.31,141.55Z"/><path class="cls-30" d="M314,189.66a.84.84,0,0,1-.83-.84A.83.83,0,0,1,314,188h37.39a.83.83,0,0,1,.83.83.84.84,0,0,1-.83.84Z"/><path class="cls-23" d="M331.41,95.87c-8,0-16-17.32-7.53-52.54,1.12-4.64,14-4.57,15.06,0C347.43,78.55,339.42,95.85,331.41,95.87Z"/><path class="cls-23" d="M277.67,63.17c4.17-7.51,8.91-10.88,14.12-9.79C286,65.81,284.64,80,285.28,95.19c.54,12.54-14.72,17.84-14.53,1.1C270.88,85,272.45,72.77,277.67,63.17Z"/><path class="cls-23" d="M295.68,51.15c3.65-4.81,7.83-6.87,12.55-5.22-5.69,11.2-7.51,30.16-5.83,43.19,1.53,11.91-14.06,13.14-14.9,5C286.18,81.33,289.15,62.48,295.68,51.15Z"/><path class="cls-23" d="M321.77,42.72c-3.9,13.19-4.86,30.3-2.5,44.26,2.18,12.92-14.45,10.41-15.19,1.08C302.88,73.08,305.39,34.33,321.77,42.72Z"/><path class="cls-23" d="M385.15,63.17C381,55.66,375.91,51.51,370.7,52.6,376.52,65,378.18,80,377.54,95.19c-.54,12.54,14.72,17.84,14.53,1.1C391.94,85,390.37,72.77,385.15,63.17Z"/><path class="cls-23" d="M367.14,51.15c-3.65-4.81-7.94-7.43-12.66-5.77,5.69,11.2,7.62,30.71,5.94,43.74-1.53,11.91,14.07,13.14,14.9,5C376.64,81.33,373.67,62.48,367.14,51.15Z"/><path class="cls-23" d="M341.32,42.28c3.9,13.19,4.59,30.74,2.23,44.7C341.37,99.9,358,97.39,358.74,88.06,359.94,73.08,356.27,33.56,341.32,42.28Z"/><path class="cls-31" d="M331.33,285l-.58-.3v2.67a2.56,2.56,0,0,0,.58.05c3.31.15,22-9,39-1.88,6.38,2.66,9.2,8,9.87,6.07,5-14.83-4.44-45.49-17.59-54.86C360.11,244.3,355,272.8,331.33,285Z"/><path class="cls-31" d="M331.49,285l.58-.3v2.67a2.52,2.52,0,0,1-.58.05c-3.31.15-22-9-39-1.88-6.38,2.66-9.2,8-9.87,6.07-5-14.83,4.44-45.49,17.6-54.86C302.71,244.3,307.81,272.8,331.49,285Z"/><path class="cls-25" d="M331.41,285A49.88,49.88,0,0,0,349.89,268a77.68,77.68,0,0,1-37.06-.15A49.92,49.92,0,0,0,331.41,285Z"/><path class="cls-28" d="M244.19,331.25a1.25,1.25,0,1,1,2.49,0l-.3,34.61a1.25,1.25,0,1,1-2.5,0Z"/><path class="cls-28" d="M416.44,330.17a1.25,1.25,0,0,1,2.5,0l-.3,34.61a1.25,1.25,0,0,1-2.5,0Z"/><rect class="cls-32" x="64.45" y="309.58" width="36.45" height="36.45" rx="2.45"/><use transform="translate(70.8 315.93) scale(0.25)" xlink:href="#image"/><rect class="cls-32" x="20" y="309.58" width="36.45" height="36.45" rx="2.45"/><use transform="translate(30.29 318.88) scale(0.19)" xlink:href="#image-2"/><rect class="cls-21" x="108.91" y="309.58" width="36.45" height="36.45" rx="2.45"/><use transform="translate(118.12 318.52) scale(0.19)" xlink:href="#image-3"/><rect class="cls-7" x="633.1" y="375.61" width="2.56" height="26.02" rx="0.48"/><rect class="cls-1" x="635.43" y="320.87" width="181.91" height="45.16" rx="4.36"/><rect class="cls-7" x="652.18" y="330.44" width="2.56" height="26.02" rx="0.48"/></g></g></svg>