<svg width="112" height="146" viewBox="0 0 112 146" fill="none" xmlns="http://www.w3.org/2000/svg">
<path d="M98.4488 97.3845H87.3799V37.2432C87.4373 33.8359 86.8148 30.4513 85.5488 27.2867C84.2828 24.1221 82.3985 21.2409 80.0059 18.8111C77.6133 16.3812 74.7603 14.4514 71.6131 13.1341C68.4659 11.8167 65.0875 11.1383 61.6751 11.1383C58.2626 11.1383 54.8842 11.8167 51.737 13.1341C48.5898 14.4514 45.7368 16.3812 43.3442 18.8111C40.9516 21.2409 39.0673 24.1221 37.8013 27.2867C36.5352 30.4513 35.9128 33.8359 35.9702 37.2432V97.3845H24.9013V37.2432C24.8328 32.3772 25.7334 27.5461 27.5507 23.0307C29.368 18.5152 32.0658 14.4055 35.4873 10.9403C38.9089 7.47503 42.9859 4.72341 47.4816 2.84529C51.9773 0.967174 56.8019 0 61.6751 0C66.5482 0 71.3728 0.967174 75.8685 2.84529C80.3642 4.72341 84.4412 7.47503 87.8628 10.9403C91.2843 14.4055 93.9821 18.5152 95.7994 23.0307C97.6167 27.5461 98.5173 32.3772 98.4488 37.2432V97.3845Z" fill="#284DE2"/>
<g opacity="0.4">
<path opacity="0.4" d="M98.4488 97.3845H87.3799V37.2432C87.4373 33.8359 86.8148 30.4513 85.5488 27.2867C84.2828 24.1221 82.3985 21.2409 80.0059 18.8111C77.6133 16.3812 74.7603 14.4514 71.6131 13.1341C68.4659 11.8167 65.0875 11.1383 61.6751 11.1383C58.2626 11.1383 54.8842 11.8167 51.737 13.1341C48.5898 14.4514 45.7368 16.3812 43.3442 18.8111C40.9516 21.2409 39.0673 24.1221 37.8013 27.2867C36.5352 30.4513 35.9128 33.8359 35.9702 37.2432V97.3845H24.9013V37.2432C24.8328 32.3772 25.7334 27.5461 27.5507 23.0307C29.368 18.5152 32.0658 14.4055 35.4873 10.9403C38.9089 7.47503 42.9859 4.72341 47.4816 2.84529C51.9773 0.967174 56.8019 0 61.6751 0C66.5482 0 71.3728 0.967174 75.8685 2.84529C80.3642 4.72341 84.4412 7.47503 87.8628 10.9403C91.2843 14.4055 93.9821 18.5152 95.7994 23.0307C97.6167 27.5461 98.5173 32.3772 98.4488 37.2432V97.3845Z" fill="black"/>
</g>
<path d="M107.001 70.6292H16.3416C14.008 70.6292 12.1162 72.5183 12.1162 74.8487V129.913C12.1162 132.244 14.008 134.133 16.3416 134.133H107.001C109.335 134.133 111.227 132.244 111.227 129.913V74.8487C111.227 72.5183 109.335 70.6292 107.001 70.6292Z" fill="#284DE2"/>
<g opacity="0.5">
<path opacity="0.5" d="M69.9624 94.109C69.9706 92.5667 69.5472 91.0527 68.7399 89.7378C67.9326 88.4229 66.7736 87.3593 65.3934 86.6669C64.0133 85.9746 62.4669 85.681 60.9286 85.8192C59.3904 85.9575 57.9213 86.5221 56.6872 87.4494C55.453 88.3768 54.5028 89.6299 53.9436 91.0677C53.3844 92.5054 53.2385 94.0705 53.5223 95.5866C53.8061 97.1028 54.5084 98.5096 55.5499 99.6485C56.5915 100.787 57.9309 101.613 59.4172 102.032V114.379H63.9335V102.032C65.6644 101.546 67.1895 100.509 68.2774 99.0796C69.3653 97.6498 69.9569 95.9048 69.9624 94.109V94.109Z" fill="black"/>
</g>
<path d="M17.4034 128.112C17.1779 128.112 16.9961 117.516 16.9961 104.458C16.9961 91.4 17.1779 80.804 17.4034 80.804C17.6288 80.804 17.8179 91.3928 17.8179 104.458C17.8179 117.523 17.6288 128.112 17.4034 128.112Z" fill="#FBFBFB"/>
<path d="M55.1841 104.712C55.1841 104.756 54.7987 104.582 54.2168 104.16C53.3972 103.547 52.6762 102.812 52.0787 101.982C51.0515 100.618 50.3376 99.0455 49.9876 97.3755C49.6377 95.7054 49.6603 93.9789 50.054 92.3185C50.4476 90.6582 51.2025 89.1048 52.2651 87.7686C53.3277 86.4325 54.6719 85.3465 56.2023 84.5877C57.1148 84.1098 58.0962 83.7766 59.1113 83.6C59.8385 83.4838 60.224 83.4911 60.224 83.5419C60.224 83.5927 58.6531 83.8469 56.5077 85.0961C55.1011 85.8689 53.8722 86.9275 52.9003 88.2037C51.9285 89.4798 51.2352 90.9452 50.8652 92.5053C50.4952 94.0654 50.4567 95.6856 50.7521 97.2615C51.0476 98.8374 51.6704 100.334 52.5805 101.655C53.9187 103.739 55.2859 104.596 55.1841 104.712Z" fill="#FBFBFB"/>
<path d="M17.5559 117.865H10.6179V146H17.5559V117.865Z" fill="#2DAB66"/>
<path d="M28.1738 135.397V128.468H-5.91278e-05V135.397H28.1738Z" fill="#2DAB66"/>
</svg>
