<svg width="133" height="134" viewBox="0 0 133 134" fill="none" xmlns="http://www.w3.org/2000/svg">
<path d="M132.985 66.5008C132.986 79.5553 129.144 92.3212 121.94 103.207C114.735 114.093 104.486 122.617 92.4707 127.718C80.4552 132.818 67.2045 134.268 54.3703 131.888C41.5362 129.508 29.6863 123.403 20.2978 114.334C10.9093 105.264 4.39749 93.6318 1.57412 80.8864C-1.24924 68.1409 -0.25929 54.8462 4.42058 42.6596C9.10044 30.473 17.2632 19.9334 27.8914 12.3548C38.5195 4.77623 51.1429 0.493767 64.188 0.0412822V0.0412822C64.9516 0.0412822 65.7153 3.56209e-07 66.4858 3.56209e-07C75.2177 -0.000903581 83.8642 1.71862 91.9315 5.06036C99.9987 8.4021 107.329 13.3006 113.503 19.476C119.677 25.6515 124.574 32.9829 127.914 41.0515C131.255 49.1201 132.973 57.7679 132.972 66.5008H132.985Z" fill="#284DE2"/>
<path d="M72.8633 108.087C71.6731 113.426 72.024 119.461 75.4226 123.747C75.2712 125.295 73.0147 125.736 71.6869 124.917C70.3591 124.098 69.6229 122.612 68.5772 121.477C66.8848 119.612 64.4494 118.663 62.069 117.775C53.5656 114.569 44.4844 110.75 39.8681 102.927C36.1255 96.5414 36.1255 88.4017 38.5816 81.4041C39.813 77.9638 41.6293 74.6199 42.0696 70.9663C42.5099 67.3127 41.072 63.0467 37.6322 61.7394C34.8803 60.6798 31.8463 61.7876 28.9087 61.7394C24.4024 61.65 20.4603 58.8495 16.8416 56.1592L3.66003 46.3819L3.21973 46.0516C7.42377 33.0452 15.5328 21.6502 26.4433 13.4174C37.3537 5.18463 50.5356 0.513981 64.1948 0.0411377C65.3415 1.75682 66.3801 3.54235 67.3045 5.38735C71.1565 12.4425 73.706 20.134 74.8309 28.0933C75.4691 32.5795 75.6374 37.12 75.3331 41.6412C75.1749 43.9737 74.7965 46.4989 73.1041 48.1021C71.9208 49.2167 70.2971 49.6915 68.7561 50.1662C61.6218 52.4506 54.4118 56.3588 51.1371 63.1017C50.6005 64.2095 50.1946 65.5581 50.7862 66.6384C51.1631 67.2194 51.6944 67.684 52.3204 67.9801C55.9735 70.003 60.4041 70.0443 64.2774 71.5718C68.1507 73.0993 71.5905 77.6336 69.5541 81.2734C72.6309 82.4895 75.3737 84.4212 77.5553 86.9086C78.3129 87.6621 78.8382 88.6174 79.0688 89.6608C79.1503 90.7191 78.9584 91.7806 78.5116 92.7433C76.5921 97.8281 74.0604 102.734 72.8633 108.087Z" fill="#141E2E"/>
<path d="M132.985 66.5008C133.01 77.1468 130.463 87.6413 125.562 97.0919C123.994 97.2845 122.418 97.4496 120.85 97.601C118.703 97.8074 116.488 98.0139 114.568 99.0253C112.649 100.037 111.129 101.915 109.505 103.532C106.504 106.561 102.885 108.907 98.8964 110.413C97.603 110.901 95.8831 111.19 95.0369 110.089C94.6545 109.488 94.4872 108.775 94.5622 108.066C94.6447 102.734 97.2659 97.7455 100.107 93.2663C102.949 88.787 106.134 84.3215 107.579 79.168C109.023 74.0144 108.322 67.87 104.311 64.3472C103.526 63.7612 102.804 63.0947 102.157 62.3587C100.265 59.8198 101.717 56.2143 103.471 53.586C105.226 50.9576 107.338 48.0058 106.574 44.9371C105.295 39.7904 97.7957 39.6528 94.1012 35.8478C89.7945 31.4305 92.2919 23.7173 96.7224 19.4376C99.0597 17.3238 101.573 15.4133 104.235 13.7267L105.659 12.7428C114.132 18.9113 121.025 26.9979 125.775 36.3412C130.524 45.6845 132.995 56.0194 132.985 66.5008V66.5008Z" fill="#141E2E"/>
<g style="mix-blend-mode:multiply">
<path d="M132.442 75.1428C130.653 88.7626 124.692 101.494 115.376 111.589C106.061 121.683 93.8484 128.645 80.4171 131.518C66.9858 134.391 52.9945 133.034 40.3655 127.634C27.7364 122.233 17.0891 113.054 9.88647 101.358C13.6485 104.914 17.787 108.05 22.2287 110.709C23.146 111.268 24.0908 111.805 25.0632 112.319C40.0541 120.328 58.1547 122.598 74.4803 117.878C82.5021 115.559 89.9804 111.686 97.039 107.193C110.601 98.6332 122.579 87.7898 132.442 75.1428V75.1428Z" fill="#8FAEBE"/>
</g>
<path d="M24.0033 103.195H18.0042V127.545H24.0033V103.195Z" fill="#2DAB66"/>
<path d="M33.1814 118.373V112.374H8.83399V118.373H33.1814Z" fill="#2DAB66"/>
</svg>
